<svg width="138" height="137" viewBox="0 0 138 137" fill="none" xmlns="http://www.w3.org/2000/svg">
<path d="M52.9363 32.1597H25.1586C24.8245 32.1597 24.5516 31.8944 24.5424 31.5603C24.5424 31.3982 24.6074 31.243 24.7236 31.1307C24.8398 31.0175 24.9965 30.9563 25.1586 30.9609H52.9363C53.0969 30.9563 53.2521 31.0183 53.3652 31.1314C53.4784 31.2446 53.5403 31.3998 53.5357 31.5603C53.5357 31.7193 53.4723 31.8722 53.3599 31.9846C53.2475 32.097 53.0954 32.1597 52.9363 32.1597L52.9363 32.1597Z" fill="url(#paint0_linear_142_132)"/>
<path d="M52.9364 72.0443H25.1586C24.9797 72.0741 24.797 72.0244 24.6579 71.9067C24.5195 71.7897 24.44 71.6177 24.44 71.4365C24.44 71.2546 24.5195 71.0825 24.6579 70.9656C24.797 70.8486 24.9797 70.7982 25.1586 70.828H52.9364C53.233 70.8784 53.4501 71.1353 53.4501 71.4365C53.4501 71.737 53.233 71.9939 52.9364 72.0443V72.0443Z" fill="url(#paint1_linear_142_132)"/>
<path d="M41.4636 29.592H36.6341C36.4552 29.6226 36.2725 29.5721 36.1334 29.4551C35.995 29.3382 35.9155 29.1654 35.9155 28.9842C35.9155 28.803 35.995 28.6302 36.1334 28.5133C36.2725 28.3963 36.4552 28.3459 36.6341 28.3764H41.4636C41.7602 28.4261 41.9773 28.683 41.9773 28.9842C41.9773 29.2854 41.7602 29.5423 41.4636 29.592V29.592Z" fill="url(#paint2_linear_142_132)"/>
<path d="M40.8647 74.7512C40.8647 75.7535 40.052 76.5662 39.049 76.5662C38.0467 76.5662 37.2341 75.7535 37.2341 74.7512C37.2341 73.7489 38.0467 72.9363 39.049 72.9363C40.052 72.9363 40.8647 73.7489 40.8647 74.7512Z" fill="url(#paint3_linear_142_132)"/>
<path d="M40.2462 47.7778H28.2587C28.0974 47.7778 27.9422 47.712 27.8291 47.5966C27.7159 47.4804 27.6548 47.3229 27.6594 47.1616V36.3039C27.6548 36.1419 27.7159 35.9851 27.8291 35.8689C27.9422 35.7527 28.0974 35.6877 28.2587 35.6877H40.332C40.6729 35.6877 40.9489 35.9637 40.9489 36.3039V47.1616C40.9504 47.3405 40.874 47.5117 40.7394 47.6302C40.6041 47.7487 40.4244 47.803 40.2463 47.7778L40.2462 47.7778ZM28.7725 46.5622H39.6468V36.9033H28.7725V46.5622Z" fill="url(#paint4_linear_142_132)"/>
<path d="M49.9224 36.99H42.6618C42.3307 36.99 42.0624 36.7217 42.0624 36.3906C42.0624 36.0596 42.3307 35.7913 42.6618 35.7913H49.9231H49.9224C50.2534 35.7913 50.5218 36.0596 50.5218 36.3906C50.5218 36.5497 50.4591 36.7018 50.3467 36.8142C50.2343 36.9266 50.0814 36.99 49.9224 36.99L49.9224 36.99Z" fill="url(#paint5_linear_142_132)"/>
<path d="M48.707 40.6206H42.6619C42.3309 40.6206 42.0626 40.3523 42.0626 40.0212C42.0626 39.6902 42.3309 39.4219 42.6619 39.4219H48.707C48.8675 39.4173 49.0227 39.4784 49.1359 39.5924C49.2498 39.7055 49.3109 39.8607 49.3063 40.0212C49.3063 40.1803 49.2429 40.3324 49.1305 40.4448C49.0181 40.5572 48.866 40.6206 48.707 40.6206L48.707 40.6206Z" fill="url(#paint6_linear_142_132)"/>
<path d="M49.3059 44.2509H42.6615C42.3649 44.2005 42.147 43.9436 42.147 43.6424C42.147 43.3419 42.3649 43.085 42.6615 43.0346H49.3059C49.4847 43.0048 49.6675 43.0545 49.8066 43.1722C49.945 43.2892 50.0245 43.4612 50.0245 43.6424C50.0245 43.8243 49.945 43.9963 49.8066 44.1133C49.6675 44.2303 49.4848 44.2807 49.3059 44.2509V44.2509Z" fill="url(#paint7_linear_142_132)"/>
<path d="M49.9224 47.95H42.6618C42.3307 47.95 42.0624 47.6816 42.0624 47.3506C42.0624 47.0196 42.3307 46.7512 42.6618 46.7512H49.9231H49.9224C50.2534 46.7512 50.5218 47.0196 50.5218 47.3506C50.5218 47.5096 50.4591 47.6617 50.3467 47.7741C50.2343 47.8865 50.0814 47.95 49.9224 47.95L49.9224 47.95Z" fill="url(#paint8_linear_142_132)"/>
<path d="M28.1746 51.7527C27.8435 51.7527 27.5752 51.4843 27.5752 51.1533V50.8452C27.5752 50.5142 27.8435 50.2458 28.1746 50.2458H28.4834C28.8145 50.2458 29.0828 50.5142 29.0828 50.8452C29.0866 51.0838 28.9437 51.3016 28.7227 51.3926C28.6318 51.6143 28.4139 51.7565 28.1746 51.7527Z" fill="url(#paint9_linear_142_132)"/>
<path d="M28.1746 65.572C28.0148 65.5766 27.8596 65.5147 27.7457 65.4016C27.6326 65.2876 27.5706 65.1325 27.5752 64.9727V64.4069C27.5752 64.0759 27.8436 63.8076 28.1746 63.8076C28.5056 63.8076 28.774 64.0759 28.774 64.4069V64.9727C28.774 65.1317 28.7113 65.2838 28.5989 65.3962C28.4865 65.5086 28.3336 65.5721 28.1746 65.5721L28.1746 65.572ZM28.1746 63.6028C27.8436 63.6028 27.5752 63.3344 27.5752 63.0034V62.4377C27.5706 62.2763 27.6318 62.1189 27.7449 62.0026C27.8581 61.8872 28.0133 61.8215 28.1746 61.8215C28.5087 61.8306 28.7747 62.1043 28.774 62.4376V63.0034C28.774 63.1624 28.7113 63.3145 28.5989 63.4269C28.4865 63.5393 28.3336 63.6028 28.1746 63.6028L28.1746 63.6028ZM28.1746 61.6335C28.0133 61.6335 27.8581 61.5677 27.7449 61.4515C27.6318 61.3353 27.5706 61.1786 27.5752 61.0165V60.4684C27.6104 60.1648 27.8688 59.9355 28.1746 59.9378C28.5087 59.947 28.7747 60.2207 28.774 60.554V61.1021C28.7403 61.4095 28.4834 61.6434 28.1746 61.6503L28.1746 61.6335ZM28.1746 59.6474V59.6466C28.0148 59.6512 27.8596 59.59 27.7457 59.4761C27.6326 59.363 27.5706 59.2078 27.5752 59.0472V58.4823C27.5752 58.1512 27.8436 57.8829 28.1746 57.8829C28.5056 57.8829 28.774 58.1512 28.774 58.4823V59.0472C28.774 59.3783 28.5056 59.6466 28.1746 59.6466L28.1746 59.6474ZM28.1746 57.6781V57.6773C27.8436 57.6773 27.5752 57.409 27.5752 57.078V56.513C27.5706 56.3524 27.6326 56.1972 27.7457 56.0841C27.8596 55.9702 28.0148 55.909 28.1746 55.9136C28.5056 55.9136 28.774 56.182 28.774 56.513V57.078C28.774 57.237 28.7113 57.3899 28.5989 57.5023C28.4865 57.6147 28.3336 57.6773 28.1746 57.6773L28.1746 57.6781ZM28.1746 55.7088V55.7081C28.0133 55.7081 27.8581 55.6431 27.7449 55.5269C27.6318 55.4107 27.5706 55.2539 27.5752 55.0919V54.5437C27.5706 54.3816 27.6318 54.2249 27.7449 54.1087C27.8581 53.9925 28.0133 53.9275 28.1746 53.9275C28.5087 53.9367 28.7747 54.2096 28.774 54.5437V55.0918C28.7747 55.4259 28.5087 55.6989 28.1746 55.708V55.7088ZM28.1746 53.7227V53.722C28.0079 53.7273 27.8474 53.6608 27.7327 53.54C27.618 53.4184 27.5607 53.2541 27.5752 53.0882V52.5232C27.5752 52.1922 27.8436 51.9238 28.1746 51.9238C28.5056 51.9238 28.774 52.1922 28.774 52.5232V53.0882C28.7839 53.2533 28.725 53.4146 28.6111 53.5346C28.498 53.6539 28.3397 53.7219 28.1746 53.7219L28.1746 53.7227Z" fill="url(#paint10_linear_142_132)"/>
<path d="M28.4818 67.2847H28.173C28.0132 67.2893 27.858 67.2274 27.7441 67.1142C27.6309 67.0003 27.569 66.8451 27.5736 66.6853V66.3765C27.5736 66.0454 27.8419 65.7771 28.173 65.7771C28.4115 65.7779 28.6263 65.9193 28.7211 66.1372C28.939 66.232 29.0804 66.4468 29.0812 66.6853C29.0812 66.8443 29.0178 66.9965 28.9054 67.1089C28.793 67.2213 28.6408 67.2847 28.4818 67.2847L28.4818 67.2847Z" fill="url(#paint11_linear_142_132)"/>
<path d="M48.022 67.2847H47.4058C47.2453 67.2893 47.0901 67.2273 46.9762 67.1142C46.863 67.0003 46.8011 66.8451 46.8064 66.6853C46.8064 66.3543 47.0748 66.0859 47.4058 66.0859H48.022C48.3561 66.0852 48.629 66.3512 48.6382 66.6853C48.6382 66.8466 48.5732 67.0018 48.457 67.115C48.3408 67.2281 48.1841 67.2893 48.022 67.2847H48.022ZM45.847 67.2847H45.2308C45.0703 67.2893 44.9151 67.2273 44.8019 67.1142C44.688 67.0003 44.6269 66.8451 44.6315 66.6853C44.6315 66.3543 44.8998 66.0859 45.2308 66.0859H45.847C46.1781 66.0859 46.4464 66.3543 46.4464 66.6853C46.451 66.8397 46.3944 66.9896 46.2881 67.102C46.1819 67.2144 46.0359 67.2801 45.8814 67.2847H45.847ZM43.672 67.2847H43.0559C42.8953 67.2893 42.7401 67.2273 42.627 67.1142C42.5131 67.0003 42.4519 66.8451 42.4565 66.6853C42.4565 66.3543 42.7248 66.0859 43.0559 66.0859H43.6721C44.0031 66.0859 44.2714 66.3543 44.2714 66.6853C44.276 66.8397 44.2194 66.9896 44.1132 67.102C44.0077 67.2144 43.8609 67.2801 43.7065 67.2847H43.672ZM41.4971 67.2847H40.8809C40.7188 67.2893 40.5621 67.2281 40.4459 67.115C40.3297 67.0018 40.2647 66.8466 40.2647 66.6853C40.2739 66.3512 40.5468 66.0852 40.8809 66.0859H41.4978C41.8289 66.0859 42.0972 66.3543 42.0972 66.6853C42.1018 66.8397 42.0444 66.9896 41.9382 67.102C41.8327 67.2144 41.6859 67.2801 41.5315 67.2847H41.4971ZM39.3221 67.2847H38.7059C38.5446 67.2893 38.3871 67.2281 38.2709 67.115C38.1555 67.0018 38.0897 66.8466 38.0897 66.6853C38.0989 66.3512 38.3726 66.0852 38.7059 66.0859H39.3228C39.6539 66.0859 39.9222 66.3543 39.9222 66.6853C39.9222 67.0033 39.6745 67.2664 39.3573 67.2847H39.3221ZM37.1471 67.2847H36.5309H36.5317C36.3696 67.2893 36.2129 67.2281 36.0967 67.115C35.9805 67.0018 35.9147 66.8466 35.9147 66.6853C35.9239 66.3512 36.1976 66.0852 36.5317 66.0859H37.1479C37.4789 66.0859 37.7473 66.3543 37.7473 66.6853C37.748 67.0033 37.4996 67.2664 37.1823 67.2847H37.1471ZM34.9722 67.2847H34.3223C34.1602 67.2893 34.0035 67.2281 33.8873 67.115C33.7711 67.0018 33.7061 66.8466 33.7061 66.6853C33.7153 66.3512 33.9882 66.0852 34.3223 66.0859H34.9385C35.2695 66.0859 35.5379 66.3543 35.5379 66.6853C35.5402 66.9911 35.3116 67.2495 35.0073 67.2847H34.9722ZM32.7972 67.2847H32.1634H32.1649C31.8339 67.2847 31.5656 67.0163 31.5656 66.6853C31.5656 66.3543 31.8339 66.0859 32.1649 66.0859H32.7987H32.7979C33.129 66.0859 33.3973 66.3543 33.3973 66.6853C33.3981 67.0033 33.1504 67.2664 32.8324 67.2847H32.7972ZM30.6222 67.2847H30.0244C29.6933 67.2847 29.425 67.0163 29.425 66.6853C29.425 66.3543 29.6933 66.0859 30.0244 66.0859H30.6581H30.6574C30.9884 66.0859 31.2568 66.3543 31.2568 66.6853C31.2568 66.8443 31.1941 66.9965 31.0817 67.1089C30.9693 67.2212 30.8164 67.2847 30.6574 67.2847L30.6222 67.2847Z" fill="url(#paint12_linear_142_132)"/>
<path d="M49.9224 67.2845H49.6143C49.2833 67.2845 49.0149 67.0162 49.0149 66.6852C49.0111 66.4459 49.1533 66.228 49.375 66.137C49.466 65.9161 49.6838 65.7731 49.9224 65.7769C50.2534 65.7769 50.5217 66.0453 50.5217 66.3763V66.6852C50.5217 66.8442 50.4591 66.9963 50.3467 67.1087C50.2343 67.2211 50.0814 67.2845 49.9224 67.2845L49.9224 67.2845Z" fill="url(#paint13_linear_142_132)"/>
<path d="M49.9223 65.5722C49.589 65.5722 49.3153 65.3061 49.3061 64.9728V64.4071C49.3558 64.1104 49.6135 63.8933 49.9139 63.8933C50.2152 63.8933 50.472 64.1104 50.5217 64.4071V64.9728C50.5217 65.1318 50.459 65.2839 50.3466 65.3963C50.2343 65.5087 50.0814 65.5722 49.9223 65.5722L49.9223 65.5722ZM49.9223 63.6029C49.589 63.6029 49.3153 63.3368 49.3061 63.0035V62.4378C49.2763 62.2589 49.326 62.0762 49.443 61.9378C49.5607 61.7994 49.7327 61.7191 49.9139 61.7191C50.0951 61.7191 50.2679 61.7994 50.3848 61.9378C50.5018 62.0762 50.5523 62.2589 50.5217 62.4378V63.0035C50.5217 63.1625 50.459 63.3147 50.3466 63.427C50.2342 63.5394 50.0813 63.6029 49.9223 63.6029L49.9223 63.6029ZM49.9223 61.6336C49.5821 61.6336 49.3061 61.3576 49.3061 61.0167V60.4517C49.3558 60.1551 49.6135 59.9379 49.9139 59.9379C50.2152 59.9379 50.472 60.1551 50.5217 60.4517V61.0167C50.5263 61.1803 50.4659 61.3393 50.3535 61.4578C50.2411 61.577 50.0859 61.6458 49.9223 61.6504L49.9223 61.6336ZM49.9223 59.6475V59.6467C49.761 59.6513 49.6035 59.5902 49.4873 59.4778C49.3719 59.3646 49.3061 59.2094 49.3061 59.0474V58.4824C49.3558 58.1858 49.6135 57.9686 49.9139 57.9686C50.2151 57.9686 50.472 58.1858 50.5217 58.4824V59.0474C50.5217 59.3784 50.2534 59.6467 49.9223 59.6467L49.9223 59.6475ZM49.9223 57.6782V57.6775C49.589 57.6775 49.3153 57.4122 49.3061 57.0781V56.5131C49.3558 56.2165 49.6135 55.9994 49.9139 55.9994C50.2152 55.9994 50.472 56.2165 50.5217 56.5131V57.0781C50.5217 57.2371 50.459 57.39 50.3466 57.5024C50.2343 57.6148 50.0814 57.6775 49.9223 57.6775L49.9223 57.6782ZM49.9223 55.7089V55.7082C49.5821 55.7082 49.3061 55.4322 49.3061 55.092V54.527C49.3558 54.2296 49.6135 54.0125 49.9139 54.0125C50.2152 54.0125 50.472 54.2296 50.5217 54.527V55.092C50.5225 55.4261 50.2564 55.699 49.9223 55.7082L49.9223 55.7089ZM49.9223 53.7228V53.7221C49.761 53.7267 49.6035 53.6655 49.4873 53.5523C49.3719 53.44 49.3061 53.2848 49.3061 53.1227V52.5577C49.3558 52.2603 49.6135 52.0432 49.9139 52.0432C50.2151 52.0432 50.472 52.2603 50.5217 52.5577V53.0883C50.5316 53.2534 50.4728 53.4147 50.3589 53.5348C50.2457 53.654 50.0875 53.7221 49.9223 53.7221L49.9223 53.7228Z" fill="url(#paint14_linear_142_132)"/>
<path d="M49.9224 51.7527C49.5072 51.5891 49.1785 51.2604 49.0149 50.8452C49.0149 50.5142 49.2832 50.2458 49.6143 50.2458H49.9224C50.2534 50.2458 50.5217 50.5142 50.5217 50.8452V51.1533C50.5217 51.3123 50.459 51.4645 50.3467 51.5769C50.2343 51.6892 50.0814 51.7527 49.9224 51.7527L49.9224 51.7527Z" fill="url(#paint15_linear_142_132)"/>
<path d="M48.0219 51.375H47.4058C47.0747 51.375 46.8064 51.1067 46.8064 50.7756C46.8064 50.4446 47.0747 50.1763 47.4058 50.1763H48.0219C48.356 50.1763 48.629 50.4416 48.6381 50.7756C48.6381 50.9377 48.5732 51.0929 48.4569 51.2053C48.3407 51.3184 48.184 51.3796 48.0219 51.375H48.0219ZM45.847 51.375H45.2308C45.0702 51.3796 44.915 51.3184 44.8019 51.2045C44.688 51.0914 44.6268 50.9362 44.6314 50.7756C44.6314 50.4446 44.8998 50.1763 45.2308 50.1763H45.847C46.1811 50.1763 46.454 50.4416 46.4639 50.7756C46.4639 51.0998 46.2055 51.3658 45.8814 51.375H45.847ZM43.672 51.375H43.0558C42.8953 51.3796 42.7401 51.3184 42.6269 51.2045C42.513 51.0914 42.4519 50.9362 42.4564 50.7756C42.4564 50.4446 42.7248 50.1763 43.0558 50.1763H43.672C44.003 50.1763 44.2714 50.4446 44.2714 50.7756C44.276 50.9301 44.2194 51.0799 44.1131 51.1923C44.0076 51.3047 43.8608 51.3704 43.7064 51.375H43.672ZM41.497 51.375H40.8808C40.7203 51.3796 40.5651 51.3184 40.452 51.2045C40.3388 51.0914 40.2769 50.9362 40.2815 50.7756C40.2815 50.4446 40.5498 50.1763 40.8808 50.1763H41.4978C41.8288 50.1763 42.0972 50.4446 42.0972 50.7756C42.1018 50.9301 42.0444 51.0799 41.9382 51.1923C41.8327 51.3047 41.6859 51.3704 41.5314 51.375H41.497ZM39.3221 51.375H38.7059C38.5446 51.3796 38.3871 51.3184 38.2709 51.2053C38.1554 51.0929 38.0897 50.9377 38.0897 50.7756C38.0988 50.4416 38.3725 50.1763 38.7059 50.1763H39.3228C39.6538 50.1763 39.9222 50.4446 39.9222 50.7756C39.9222 51.0937 39.6745 51.3567 39.3572 51.375H39.3221ZM37.1471 51.375H36.5309H36.5317C36.3696 51.3796 36.2129 51.3184 36.0966 51.2053C35.9804 51.0929 35.9147 50.9377 35.9147 50.7756C35.9239 50.4416 36.1976 50.1763 36.5316 50.1763H37.1478C37.4789 50.1763 37.7472 50.4446 37.7472 50.7756C37.748 51.0937 37.4995 51.3567 37.1822 51.375H37.1471ZM35.0071 51.375H34.3221C34.1601 51.3796 34.0033 51.3184 33.8871 51.2053C33.7709 51.0929 33.7059 50.9377 33.7059 50.7756C33.7151 50.4416 33.988 50.1763 34.3221 50.1763H34.9383C35.2693 50.1763 35.5377 50.4446 35.5377 50.7756C35.54 51.0814 35.3114 51.3398 35.0071 51.375H35.0071ZM32.8322 51.375H32.1984C31.8674 51.375 31.599 51.1067 31.599 50.7756C31.599 50.4446 31.8674 50.1763 32.1984 50.1763H32.8322C33.1632 50.1763 33.4315 50.4446 33.4315 50.7756C33.4315 50.9347 33.3689 51.0868 33.2565 51.1992C33.1441 51.3116 32.9912 51.375 32.8322 51.375L32.8322 51.375ZM30.6572 51.375H30.0242C29.6931 51.375 29.4248 51.1067 29.4248 50.7756C29.4248 50.4446 29.6931 50.1763 30.0242 50.1763H30.658H30.6572C30.9882 50.1763 31.2566 50.4446 31.2566 50.7756C31.2566 50.9347 31.1939 51.0868 31.0815 51.1992C30.9691 51.3116 30.8162 51.375 30.6572 51.375L30.6572 51.375Z" fill="url(#paint16_linear_142_132)"/>
<path d="M50.7972 78.6732H27.2841C26.5127 78.6242 25.7925 78.2733 25.2788 77.6961C24.7658 77.1182 24.5013 76.3621 24.5441 75.5906V28.5996C24.5013 27.8282 24.7658 27.0714 25.2788 26.4941C25.7925 25.9169 26.5127 25.5653 27.2841 25.5171H50.7972C51.5678 25.5653 52.2888 25.9169 52.8017 26.4941C53.3147 27.0713 53.5792 27.8282 53.5372 28.5996V75.5906C53.5838 76.3628 53.3208 77.1219 52.8071 77.7006C52.2925 78.2786 51.5693 78.6287 50.7971 78.6731L50.7972 78.6732ZM27.2841 26.7326C26.3499 26.8319 25.6702 27.6645 25.7596 28.5995V75.5905C25.7115 76.0423 25.8453 76.4949 26.1312 76.8481C26.4171 77.2013 26.8315 77.4268 27.2841 77.4742H50.7972C51.2521 77.4307 51.671 77.2074 51.9608 76.8535C52.2498 76.4995 52.3858 76.0446 52.3384 75.5905V28.5995C52.4279 27.6584 51.7375 26.8228 50.7972 26.7326H27.2841Z" fill="url(#paint17_linear_142_132)"/>
<path d="M112.995 32.1597H85.2175C84.8834 32.1597 84.6104 31.8944 84.6005 31.5603C84.6005 31.3982 84.6663 31.243 84.7825 31.1307C84.8987 31.0175 85.0554 30.9563 85.2175 30.9609H112.995C113.155 30.9563 113.31 31.0183 113.424 31.1314C113.537 31.2446 113.599 31.3998 113.595 31.5603C113.595 31.7193 113.531 31.8722 113.419 31.9846C113.306 32.097 113.154 32.1597 112.995 32.1597L112.995 32.1597Z" fill="url(#paint18_linear_142_132)"/>
<path d="M112.995 72.0443H85.2174C85.0386 72.0741 84.8551 72.0244 84.7167 71.9067C84.5783 71.7897 84.498 71.6177 84.498 71.4365C84.498 71.2546 84.5783 71.0825 84.7167 70.9656C84.8551 70.8486 85.0385 70.7982 85.2174 70.828H112.995C113.292 70.8784 113.509 71.1353 113.509 71.4365C113.509 71.737 113.292 71.9939 112.995 72.0443V72.0443Z" fill="url(#paint19_linear_142_132)"/>
<path d="M101.52 29.592H96.691C96.5121 29.6226 96.3286 29.5721 96.1903 29.4551C96.0519 29.3382 95.9716 29.1654 95.9716 28.9842C95.9716 28.803 96.0519 28.6302 96.1903 28.5133C96.3286 28.3963 96.5121 28.3459 96.691 28.3764H101.52C101.817 28.4261 102.034 28.683 102.034 28.9842C102.034 29.2854 101.817 29.5423 101.52 29.592V29.592Z" fill="url(#paint20_linear_142_132)"/>
<path d="M100.922 74.7512C100.922 75.7535 100.109 76.5662 99.1059 76.5662C98.1036 76.5662 97.291 75.7535 97.291 74.7512C97.291 73.7489 98.1036 72.9363 99.1059 72.9363C100.109 72.9363 100.922 73.7489 100.922 74.7512Z" fill="url(#paint21_linear_142_132)"/>
<path d="M110.854 78.6732H87.4095C86.6388 78.6242 85.9179 78.2733 85.405 77.6961C84.892 77.1182 84.6274 76.3621 84.6695 75.5906V28.5996C84.6275 27.8282 84.892 27.0714 85.405 26.4941C85.9179 25.9169 86.6389 25.5653 87.4095 25.5171H110.854C111.625 25.5653 112.346 25.9169 112.859 26.4941C113.372 27.0713 113.636 27.8282 113.594 28.5996V75.5906C113.641 76.3628 113.378 77.1219 112.864 77.7006C112.349 78.2786 111.626 78.6287 110.854 78.6731L110.854 78.6732ZM87.4095 26.7326C86.4752 26.8319 85.7956 27.6645 85.885 28.5995V75.5905C85.8376 76.0423 85.9714 76.4949 86.2573 76.8481C86.5425 77.2013 86.9576 77.4268 87.4094 77.4742H110.854C111.309 77.4307 111.728 77.2074 112.018 76.8535C112.307 76.4995 112.443 76.0446 112.395 75.5905V28.5995C112.485 27.6584 111.794 26.8228 110.854 26.7326H87.4095Z" fill="url(#paint22_linear_142_132)"/>
<path d="M57.6804 65.3823C56.6346 65.3823 55.6912 64.7523 55.2914 63.786C54.8907 62.8197 55.1125 61.7073 55.8517 60.9681C56.591 60.2289 57.7034 60.0071 58.6696 60.4077C59.636 60.8076 60.2659 61.751 60.2659 62.7968C60.2567 64.2211 59.1046 65.3732 57.6803 65.3824L57.6804 65.3823ZM57.6804 61.2379C57.0497 61.2379 56.4817 61.6178 56.2401 62.2004C55.9993 62.7822 56.1323 63.4526 56.578 63.8984C57.0237 64.3441 57.6942 64.4779 58.2768 64.2363C58.8586 63.9955 59.2385 63.4267 59.2385 62.7967C59.2431 62.3816 59.0803 61.9825 58.7875 61.6897C58.4939 61.3961 58.0948 61.2333 57.6805 61.2379L57.6804 61.2379Z" fill="url(#paint23_linear_142_132)"/>
<path d="M78.4027 44.6795C78.304 44.6795 78.2085 44.6497 78.1282 44.5939C77.9723 44.5075 77.8736 44.3439 77.8713 44.1658V40.0213C77.8744 39.8386 77.9715 39.6704 78.1282 39.5756C78.2826 39.4907 78.4707 39.4907 78.6251 39.5756L82.7696 41.6474V41.6482C82.947 41.7338 83.0601 41.9135 83.0601 42.1107C83.0563 42.3064 82.9439 42.4846 82.7696 42.5725L78.6251 44.6443V44.6451C78.5541 44.6719 78.4784 44.6841 78.4027 44.6795H78.4027ZM78.9164 40.8607V43.3263L81.3828 42.0932L78.9164 40.8607Z" fill="url(#paint24_linear_142_132)"/>
<path d="M64.325 64.6465C62.6255 64.5738 60.9689 64.0922 59.4955 63.242C59.377 63.174 59.2914 63.0616 59.2555 62.9301C59.2203 62.7986 59.2387 62.658 59.3075 62.5402C59.4558 62.2918 59.7753 62.2084 60.0261 62.3514C60.0261 62.3514 63.8449 64.5945 66.5849 63.0532C68.571 61.9233 69.5985 59.0455 69.5985 54.4907C69.5985 48.7195 70.8829 44.7807 73.4173 42.7944L73.418 42.7952C74.8721 41.6614 76.7452 41.2119 78.5555 41.562C78.8346 41.6331 79.0035 41.9168 78.9324 42.1958C78.8613 42.4749 78.5777 42.6431 78.2987 42.5719C76.8094 42.2975 75.2743 42.6782 74.0863 43.617C71.8432 45.3295 70.6613 49.1483 70.6613 54.4913C70.6613 59.4407 69.4626 62.6089 67.1163 63.9445C66.2639 64.4208 65.3014 64.6624 64.3251 64.6463L64.325 64.6465Z" fill="url(#paint25_linear_142_132)"/>
<path d="M109.979 52.968H88.2314C88.0923 52.968 87.9593 52.9114 87.8622 52.8121C87.7651 52.7119 87.7131 52.5766 87.7177 52.4374V35.963C87.7131 35.8254 87.7658 35.6916 87.8629 35.5945C87.96 35.4967 88.0938 35.4447 88.2314 35.4493H109.979C110.263 35.4493 110.493 35.6794 110.493 35.963V52.523C110.452 52.776 110.235 52.9633 109.979 52.9679V52.968ZM88.7442 51.9237H109.449V36.3912H88.7442V51.9237Z" fill="url(#paint26_linear_142_132)"/>
<path d="M100.665 67.4549H100.134C99.8502 67.4549 99.6201 67.2248 99.6201 66.9412C99.6201 66.6568 99.8502 66.4274 100.134 66.4274C100.106 66.2722 100.148 66.1132 100.249 65.9916C100.349 65.8708 100.499 65.8013 100.656 65.8013C100.814 65.8013 100.963 65.8708 101.064 65.9916C101.164 66.1132 101.206 66.2722 101.179 66.4274V66.9412C101.179 67.0772 101.125 67.208 101.028 67.3043C100.932 67.4006 100.801 67.4549 100.665 67.4549V67.4549Z" fill="url(#paint27_linear_142_132)"/>
<path d="M98.6611 67.455H97.6848C97.4011 67.455 97.171 67.2249 97.171 66.9412C97.171 66.6568 97.4011 66.4275 97.6848 66.4275H98.6779C98.9615 66.4275 99.1916 66.6568 99.1916 66.9412C99.1916 67.2249 98.9615 67.455 98.6779 67.455H98.6611ZM96.1778 67.455H95.1847C94.9003 67.455 94.671 67.2249 94.671 66.9412C94.671 66.6568 94.9003 66.4275 95.1847 66.4275H96.1778C96.4615 66.4275 96.6916 66.6568 96.6916 66.9412C96.6916 67.2249 96.4615 67.455 96.1778 67.455ZM93.6946 67.455H92.7183C92.4347 67.455 92.2046 67.2249 92.2046 66.9412C92.2046 66.6568 92.4347 66.4275 92.7183 66.4275H93.6946C93.9782 66.4275 94.2084 66.6568 94.2084 66.9412C94.2084 67.2249 93.9782 67.455 93.6946 67.455ZM91.2282 67.455H90.2351C89.9515 67.455 89.7214 67.2249 89.7214 66.9412C89.7214 66.6568 89.9515 66.4275 90.2351 66.4275H91.2282C91.5118 66.4275 91.742 66.6568 91.742 66.9412C91.742 67.2249 91.5118 67.455 91.2282 67.455Z" fill="url(#paint28_linear_142_132)"/>
<path d="M88.7442 67.4548H88.2305C88.0928 67.4594 87.9591 67.4067 87.862 67.3096C87.7649 67.2117 87.7121 67.0787 87.7167 66.9411V66.4273C87.7167 66.1429 87.9468 65.9136 88.2305 65.9136C88.5141 65.9136 88.7442 66.1429 88.7442 66.4273C89.0278 66.4273 89.258 66.6567 89.258 66.9411C89.258 67.2247 89.0278 67.4548 88.7442 67.4548Z" fill="url(#paint29_linear_142_132)"/>
<path d="M88.2314 65.2121C88.0938 65.2174 87.96 65.1647 87.8629 65.0668C87.7658 64.9697 87.7131 64.8359 87.7177 64.6983V63.5508C87.7177 63.2672 87.9478 63.0371 88.2314 63.0371C88.5151 63.0371 88.7452 63.2672 88.7452 63.5508V64.6983C88.7505 64.8359 88.6978 64.9697 88.5999 65.0668C88.5028 65.1647 88.369 65.2174 88.2314 65.2121ZM88.2314 62.3353C88.0938 62.3399 87.96 62.2879 87.8629 62.19C87.7658 62.0929 87.7131 61.9591 87.7177 61.8215V60.674C87.7177 60.3904 87.9478 60.1602 88.2314 60.1602C88.5151 60.1602 88.7452 60.3904 88.7452 60.674V61.8215C88.7505 61.9591 88.6978 62.0929 88.5999 62.19C88.5028 62.2879 88.369 62.3399 88.2314 62.3353ZM88.2314 59.4585C88.0938 59.4631 87.96 59.4103 87.8629 59.3132C87.7658 59.2161 87.7131 59.0823 87.7177 58.9447V57.7972C87.7177 57.5136 87.9478 57.2834 88.2314 57.2834C88.5151 57.2834 88.7452 57.5136 88.7452 57.7972V58.9447C88.7505 59.0823 88.6978 59.2161 88.5999 59.3132C88.5028 59.4103 88.369 59.4631 88.2314 59.4585Z" fill="url(#paint30_linear_142_132)"/>
<path d="M88.2314 56.5125C88.0938 56.5171 87.96 56.4651 87.8629 56.3672C87.7658 56.2701 87.7131 56.1363 87.7177 55.9987V55.485C87.7131 55.3474 87.7658 55.2136 87.8629 55.1165C87.96 55.0186 88.0938 54.9666 88.2314 54.9712H88.7452C88.8828 54.9666 89.0166 55.0186 89.1137 55.1165C89.2115 55.2136 89.2643 55.3474 89.2589 55.485C89.2589 55.7686 89.0288 55.9987 88.7452 55.9987C88.7505 56.1363 88.6978 56.2701 88.5999 56.3672C88.5028 56.4651 88.369 56.5171 88.2314 56.5125Z" fill="url(#paint31_linear_142_132)"/>
<path d="M98.6611 56.0682H97.6848C97.3981 56.0682 97.1634 55.8403 97.1542 55.5544C97.1535 55.4145 97.2101 55.2815 97.3102 55.1844C97.4104 55.0881 97.5457 55.0361 97.6848 55.0407H98.6779C98.9615 55.0407 99.1917 55.27 99.1917 55.5544C99.1825 55.8403 98.9478 56.0682 98.6611 56.0682H98.6611ZM96.1779 56.0682H95.1848C94.9004 56.0682 94.671 55.838 94.671 55.5544C94.6657 55.4168 94.7184 55.283 94.8155 55.1851C94.9134 55.0881 95.0472 55.0353 95.1848 55.0407H96.1779C96.3155 55.0353 96.4493 55.0881 96.5464 55.1851C96.6434 55.283 96.6962 55.4168 96.6916 55.5544C96.6916 55.838 96.4615 56.0682 96.1779 56.0682H96.1779ZM93.6946 56.0682H92.7184C92.4317 56.0682 92.197 55.8403 92.1878 55.5544C92.187 55.4145 92.2436 55.2815 92.3438 55.1844C92.4439 55.0881 92.5792 55.0361 92.7184 55.0407H93.6947C93.8338 55.0361 93.9691 55.0881 94.0693 55.1844C94.1687 55.2815 94.2252 55.4145 94.2252 55.5544C94.2161 55.8403 93.9814 56.0682 93.6947 56.0682H93.6946ZM91.2283 56.0682H90.2352C89.9515 56.0682 89.7214 55.838 89.7214 55.5544C89.7168 55.4168 89.7688 55.283 89.8667 55.1851C89.9638 55.0881 90.0976 55.0353 90.2352 55.0407H91.2283C91.5119 55.0407 91.742 55.27 91.742 55.5544C91.7336 55.8342 91.5081 56.059 91.2283 56.0682Z" fill="url(#paint32_linear_142_132)"/>
<path d="M100.665 56.5124C100.526 56.517 100.391 56.465 100.291 56.3679C100.19 56.2716 100.134 56.1378 100.134 55.9987C99.8541 55.9895 99.6293 55.7648 99.6201 55.4849C99.6201 55.2013 99.8502 54.9712 100.134 54.9712H100.665C100.949 54.9712 101.179 55.2013 101.179 55.4849V55.9987C101.179 56.2823 100.949 56.5124 100.665 56.5124L100.665 56.5124Z" fill="url(#paint33_linear_142_132)"/>
<path d="M100.665 65.212C100.379 65.212 100.143 64.9849 100.134 64.6982V63.5507C100.106 63.3963 100.148 63.2365 100.249 63.1157C100.349 62.9949 100.499 62.9253 100.656 62.9253C100.814 62.9253 100.963 62.9949 101.064 63.1157C101.164 63.2365 101.206 63.3963 101.179 63.5507V64.6982C101.17 64.9781 100.945 65.2036 100.665 65.212ZM100.665 62.3352C100.526 62.3398 100.391 62.2878 100.291 62.1907C100.19 62.0944 100.134 61.9606 100.134 61.8214V60.6739C100.106 60.5195 100.148 60.3597 100.249 60.2389C100.349 60.1181 100.499 60.0485 100.656 60.0485C100.814 60.0485 100.963 60.1181 101.064 60.2389C101.164 60.3597 101.206 60.5195 101.179 60.6739V61.8214C101.179 62.1051 100.949 62.3352 100.665 62.3352H100.665ZM100.665 59.4584C100.526 59.463 100.391 59.411 100.291 59.3139C100.19 59.2168 100.134 59.0838 100.134 58.9446V57.7971C100.18 57.5448 100.4 57.3613 100.656 57.3613C100.913 57.3613 101.133 57.5448 101.179 57.7971V58.9446C101.179 59.2283 100.949 59.4584 100.665 59.4584L100.665 59.4584Z" fill="url(#paint34_linear_142_132)"/>
<path d="M109.449 67.4549H108.421C108.138 67.4549 107.908 67.2248 107.908 66.9411C107.908 66.6568 108.138 66.4274 108.421 66.4274H108.935V65.3823C108.981 65.13 109.2 64.9465 109.457 64.9465C109.714 64.9465 109.934 65.13 109.979 65.3823V66.4274C109.995 66.5123 109.995 66.5994 109.979 66.6843C109.999 66.7684 109.999 66.8563 109.979 66.9411C109.979 67.0803 109.923 67.2133 109.823 67.3104C109.723 67.4075 109.588 67.4595 109.449 67.4549L109.449 67.4549ZM106.863 67.4549H105.835C105.551 67.4549 105.321 67.2248 105.321 66.9411C105.321 66.6568 105.551 66.4274 105.835 66.4274H106.863C107.147 66.4274 107.376 66.6568 107.376 66.9411C107.376 67.2248 107.147 67.4549 106.863 67.4549H106.863ZM104.278 67.4549H103.249C102.966 67.4549 102.736 67.2248 102.736 66.9411C102.736 66.6568 102.966 66.4274 103.249 66.4274H104.277C104.561 66.4274 104.791 66.6568 104.791 66.9411C104.791 67.2248 104.561 67.4549 104.277 67.4549H104.278ZM103.25 65.8968L103.249 65.8961C103.11 65.9007 102.975 65.8487 102.875 65.7516C102.775 65.6552 102.718 65.5215 102.719 65.3823V64.3548C102.691 64.2004 102.733 64.0406 102.834 63.9198C102.934 63.799 103.084 63.7294 103.241 63.7294C103.398 63.7294 103.548 63.799 103.648 63.9198C103.749 64.0406 103.791 64.2004 103.763 64.3548V65.3823C103.763 65.666 103.533 65.8961 103.249 65.8961L103.25 65.8968ZM109.45 64.3556L109.449 64.3548C109.162 64.3456 108.935 64.1109 108.935 63.8243V62.7968C108.981 62.5445 109.2 62.361 109.457 62.361C109.714 62.361 109.934 62.5445 109.979 62.7968V63.8243C109.979 64.1171 109.742 64.3548 109.449 64.3548L109.45 64.3556ZM103.249 63.3617C103.11 63.3663 102.975 63.3143 102.875 63.2172C102.775 63.1209 102.718 62.9871 102.719 62.848V61.8205C102.691 61.6653 102.733 61.5063 102.834 61.3855C102.934 61.2647 103.083 61.1943 103.241 61.1943C103.398 61.1943 103.548 61.2647 103.648 61.3855C103.749 61.5063 103.791 61.6653 103.763 61.8205V62.848C103.763 63.1316 103.533 63.3617 103.249 63.3617L103.249 63.3617ZM109.449 61.8205C109.162 61.8113 108.935 61.5766 108.935 61.2899V60.2624C108.981 60.0094 109.2 59.8259 109.457 59.8259C109.714 59.8259 109.934 60.0094 109.979 60.2624V61.2899C109.953 61.5628 109.723 61.77 109.449 61.7693L109.449 61.8205ZM103.249 60.7762C103.11 60.7808 102.975 60.7288 102.875 60.6317C102.775 60.5346 102.718 60.4016 102.719 60.2624V59.2173C102.765 58.965 102.984 58.7816 103.241 58.7816C103.497 58.7816 103.717 58.965 103.763 59.2173V60.2624C103.736 60.5254 103.514 60.7257 103.249 60.7242V60.7762ZM109.449 59.2181V59.2173C109.165 59.2173 108.935 58.9872 108.935 58.7036V57.6761C108.907 57.5217 108.949 57.3619 109.05 57.2411C109.151 57.1203 109.3 57.0507 109.457 57.0507C109.615 57.0507 109.764 57.1203 109.865 57.2411C109.966 57.3619 110.008 57.5216 109.979 57.6761V58.7036C109.953 58.9742 109.72 59.1768 109.449 59.1661V59.2181ZM103.249 58.2242C102.963 58.2242 102.728 57.9972 102.719 57.7105V56.5117C102.765 56.2594 102.984 56.076 103.241 56.076C103.497 56.076 103.717 56.2594 103.763 56.5117V57.5561C103.806 57.7158 103.772 57.8863 103.671 58.0171C103.571 58.1478 103.415 58.2242 103.249 58.2242H103.249ZM109.449 56.5117C109.165 56.5117 108.935 56.2816 108.935 55.998C108.655 55.9888 108.43 55.7641 108.421 55.4842C108.421 55.2006 108.651 54.9705 108.935 54.9705H109.449C109.588 54.9659 109.723 55.0179 109.823 55.115C109.923 55.2113 109.979 55.3451 109.979 55.4842V55.998C109.979 56.1371 109.923 56.2709 109.823 56.3672C109.723 56.4643 109.588 56.5163 109.449 56.5117V56.5117ZM107.394 55.998H106.349C106.065 55.998 105.835 55.7679 105.835 55.4842C105.83 55.3466 105.883 55.2129 105.98 55.1158C106.078 55.0179 106.211 54.9659 106.349 54.9705H107.394C107.677 54.9705 107.908 55.2006 107.908 55.4843C107.922 55.631 107.875 55.7763 107.777 55.8871C107.68 55.9972 107.541 56.0622 107.394 56.0668L107.394 55.998ZM104.791 55.998H103.763C103.48 55.998 103.249 55.7679 103.249 55.4842C103.245 55.3466 103.297 55.2129 103.395 55.1158C103.492 55.0179 103.626 54.9659 103.763 54.9705H104.791C104.93 54.9659 105.065 55.0179 105.165 55.115C105.265 55.2113 105.322 55.3451 105.321 55.4842C105.336 55.6341 105.287 55.7824 105.185 55.8932C105.084 56.0041 104.941 56.0676 104.791 56.0668L104.791 55.998Z" fill="url(#paint35_linear_142_132)"/>
<defs>
<linearGradient id="paint0_linear_142_132" x1="52.0278" y1="31.556" x2="29.9903" y2="31.556" gradientUnits="userSpaceOnUse">
<stop offset="0.144764" stop-color="#A8FFBB"/>
<stop offset="0.480469" stop-color="#6B81F0"/>
<stop offset="1" stop-color="#CC48ED"/>
</linearGradient>
<linearGradient id="paint1_linear_142_132" x1="51.9411" y1="71.4319" x2="29.8909" y2="71.4319" gradientUnits="userSpaceOnUse">
<stop offset="0.144764" stop-color="#A8FFBB"/>
<stop offset="0.480469" stop-color="#6B81F0"/>
<stop offset="1" stop-color="#CC48ED"/>
</linearGradient>
<linearGradient id="paint2_linear_142_132" x1="41.662" y1="28.9799" x2="37.0545" y2="28.9799" gradientUnits="userSpaceOnUse">
<stop offset="0.144764" stop-color="#A8FFBB"/>
<stop offset="0.480469" stop-color="#6B81F0"/>
<stop offset="1" stop-color="#CC48ED"/>
</linearGradient>
<linearGradient id="paint3_linear_142_132" x1="40.6759" y1="74.7385" x2="37.9163" y2="74.7385" gradientUnits="userSpaceOnUse">
<stop offset="0.144764" stop-color="#A8FFBB"/>
<stop offset="0.480469" stop-color="#6B81F0"/>
<stop offset="1" stop-color="#CC48ED"/>
</linearGradient>
<linearGradient id="paint4_linear_142_132" x1="40.2576" y1="41.6935" x2="30.1562" y2="41.6935" gradientUnits="userSpaceOnUse">
<stop offset="0.144764" stop-color="#A8FFBB"/>
<stop offset="0.480469" stop-color="#6B81F0"/>
<stop offset="1" stop-color="#CC48ED"/>
</linearGradient>
<linearGradient id="paint5_linear_142_132" x1="50.0817" y1="36.3864" x2="43.6519" y2="36.3865" gradientUnits="userSpaceOnUse">
<stop offset="0.144764" stop-color="#A8FFBB"/>
<stop offset="0.480469" stop-color="#6B81F0"/>
<stop offset="1" stop-color="#CC48ED"/>
</linearGradient>
<linearGradient id="paint6_linear_142_132" x1="48.9298" y1="40.0169" x2="43.4237" y2="40.0169" gradientUnits="userSpaceOnUse">
<stop offset="0.144764" stop-color="#A8FFBB"/>
<stop offset="0.480469" stop-color="#6B81F0"/>
<stop offset="1" stop-color="#CC48ED"/>
</linearGradient>
<linearGradient id="paint7_linear_142_132" x1="49.6147" y1="43.6384" x2="43.6272" y2="43.6384" gradientUnits="userSpaceOnUse">
<stop offset="0.144764" stop-color="#A8FFBB"/>
<stop offset="0.480469" stop-color="#6B81F0"/>
<stop offset="1" stop-color="#CC48ED"/>
</linearGradient>
<linearGradient id="paint8_linear_142_132" x1="50.0817" y1="47.3464" x2="43.6519" y2="47.3464" gradientUnits="userSpaceOnUse">
<stop offset="0.144764" stop-color="#A8FFBB"/>
<stop offset="0.480469" stop-color="#6B81F0"/>
<stop offset="1" stop-color="#CC48ED"/>
</linearGradient>
<linearGradient id="paint9_linear_142_132" x1="29.0045" y1="50.994" x2="27.8585" y2="50.994" gradientUnits="userSpaceOnUse">
<stop offset="0.144764" stop-color="#A8FFBB"/>
<stop offset="0.480469" stop-color="#6B81F0"/>
<stop offset="1" stop-color="#CC48ED"/>
</linearGradient>
<linearGradient id="paint10_linear_142_132" x1="28.7125" y1="58.7003" x2="27.7989" y2="58.7003" gradientUnits="userSpaceOnUse">
<stop offset="0.144764" stop-color="#A8FFBB"/>
<stop offset="0.480469" stop-color="#6B81F0"/>
<stop offset="1" stop-color="#CC48ED"/>
</linearGradient>
<linearGradient id="paint11_linear_142_132" x1="29.0028" y1="66.5257" x2="27.8567" y2="66.5257" gradientUnits="userSpaceOnUse">
<stop offset="0.144764" stop-color="#A8FFBB"/>
<stop offset="0.480469" stop-color="#6B81F0"/>
<stop offset="1" stop-color="#CC48ED"/>
</linearGradient>
<linearGradient id="paint12_linear_142_132" x1="47.6388" y1="66.6812" x2="33.0351" y2="66.6813" gradientUnits="userSpaceOnUse">
<stop offset="0.144764" stop-color="#A8FFBB"/>
<stop offset="0.480469" stop-color="#6B81F0"/>
<stop offset="1" stop-color="#CC48ED"/>
</linearGradient>
<linearGradient id="paint13_linear_142_132" x1="50.4434" y1="66.5254" x2="49.298" y2="66.5254" gradientUnits="userSpaceOnUse">
<stop offset="0.144764" stop-color="#A8FFBB"/>
<stop offset="0.480469" stop-color="#6B81F0"/>
<stop offset="1" stop-color="#CC48ED"/>
</linearGradient>
<linearGradient id="paint14_linear_142_132" x1="50.4663" y1="58.7604" x2="49.5293" y2="58.7604" gradientUnits="userSpaceOnUse">
<stop offset="0.144764" stop-color="#A8FFBB"/>
<stop offset="0.480469" stop-color="#6B81F0"/>
<stop offset="1" stop-color="#CC48ED"/>
</linearGradient>
<linearGradient id="paint15_linear_142_132" x1="50.4434" y1="50.994" x2="49.298" y2="50.994" gradientUnits="userSpaceOnUse">
<stop offset="0.144764" stop-color="#A8FFBB"/>
<stop offset="0.480469" stop-color="#6B81F0"/>
<stop offset="1" stop-color="#CC48ED"/>
</linearGradient>
<linearGradient id="paint16_linear_142_132" x1="47.6387" y1="50.7716" x2="33.035" y2="50.7716" gradientUnits="userSpaceOnUse">
<stop offset="0.144764" stop-color="#A8FFBB"/>
<stop offset="0.480469" stop-color="#6B81F0"/>
<stop offset="1" stop-color="#CC48ED"/>
</linearGradient>
<linearGradient id="paint17_linear_142_132" x1="52.0338" y1="51.9093" x2="29.9892" y2="51.9093" gradientUnits="userSpaceOnUse">
<stop offset="0.144764" stop-color="#A8FFBB"/>
<stop offset="0.480469" stop-color="#6B81F0"/>
<stop offset="1" stop-color="#CC48ED"/>
</linearGradient>
<linearGradient id="paint18_linear_142_132" x1="112.087" y1="31.556" x2="90.0485" y2="31.556" gradientUnits="userSpaceOnUse">
<stop offset="0.144764" stop-color="#A8FFBB"/>
<stop offset="0.480469" stop-color="#6B81F0"/>
<stop offset="1" stop-color="#CC48ED"/>
</linearGradient>
<linearGradient id="paint19_linear_142_132" x1="112" y1="71.4319" x2="89.9491" y2="71.4319" gradientUnits="userSpaceOnUse">
<stop offset="0.144764" stop-color="#A8FFBB"/>
<stop offset="0.480469" stop-color="#6B81F0"/>
<stop offset="1" stop-color="#CC48ED"/>
</linearGradient>
<linearGradient id="paint20_linear_142_132" x1="101.719" y1="28.9799" x2="97.1108" y2="28.9799" gradientUnits="userSpaceOnUse">
<stop offset="0.144764" stop-color="#A8FFBB"/>
<stop offset="0.480469" stop-color="#6B81F0"/>
<stop offset="1" stop-color="#CC48ED"/>
</linearGradient>
<linearGradient id="paint21_linear_142_132" x1="100.733" y1="74.7385" x2="97.9731" y2="74.7385" gradientUnits="userSpaceOnUse">
<stop offset="0.144764" stop-color="#A8FFBB"/>
<stop offset="0.480469" stop-color="#6B81F0"/>
<stop offset="1" stop-color="#CC48ED"/>
</linearGradient>
<linearGradient id="paint22_linear_142_132" x1="112.094" y1="51.9093" x2="90.1018" y2="51.9093" gradientUnits="userSpaceOnUse">
<stop offset="0.144764" stop-color="#A8FFBB"/>
<stop offset="0.480469" stop-color="#6B81F0"/>
<stop offset="1" stop-color="#CC48ED"/>
</linearGradient>
<linearGradient id="paint23_linear_142_132" x1="59.9969" y1="62.7785" x2="56.066" y2="62.7785" gradientUnits="userSpaceOnUse">
<stop offset="0.144764" stop-color="#A8FFBB"/>
<stop offset="0.480469" stop-color="#6B81F0"/>
<stop offset="1" stop-color="#CC48ED"/>
</linearGradient>
<linearGradient id="paint24_linear_142_132" x1="82.7902" y1="42.0781" x2="78.8463" y2="42.0781" gradientUnits="userSpaceOnUse">
<stop offset="0.144764" stop-color="#A8FFBB"/>
<stop offset="0.480469" stop-color="#6B81F0"/>
<stop offset="1" stop-color="#CC48ED"/>
</linearGradient>
<linearGradient id="paint25_linear_142_132" x1="77.9234" y1="52.9653" x2="62.9416" y2="52.9653" gradientUnits="userSpaceOnUse">
<stop offset="0.144764" stop-color="#A8FFBB"/>
<stop offset="0.480469" stop-color="#6B81F0"/>
<stop offset="1" stop-color="#CC48ED"/>
</linearGradient>
<linearGradient id="paint26_linear_142_132" x1="109.308" y1="44.1472" x2="91.9969" y2="44.1472" gradientUnits="userSpaceOnUse">
<stop offset="0.144764" stop-color="#A8FFBB"/>
<stop offset="0.480469" stop-color="#6B81F0"/>
<stop offset="1" stop-color="#CC48ED"/>
</linearGradient>
<linearGradient id="paint27_linear_142_132" x1="101.106" y1="66.6223" x2="99.9146" y2="66.6223" gradientUnits="userSpaceOnUse">
<stop offset="0.144764" stop-color="#A8FFBB"/>
<stop offset="0.480469" stop-color="#6B81F0"/>
<stop offset="1" stop-color="#CC48ED"/>
</linearGradient>
<linearGradient id="paint28_linear_142_132" x1="98.699" y1="66.9376" x2="91.5008" y2="66.9377" gradientUnits="userSpaceOnUse">
<stop offset="0.144764" stop-color="#A8FFBB"/>
<stop offset="0.480469" stop-color="#6B81F0"/>
<stop offset="1" stop-color="#CC48ED"/>
</linearGradient>
<linearGradient id="paint29_linear_142_132" x1="89.1778" y1="66.6789" x2="88.0061" y2="66.6789" gradientUnits="userSpaceOnUse">
<stop offset="0.144764" stop-color="#A8FFBB"/>
<stop offset="0.480469" stop-color="#6B81F0"/>
<stop offset="1" stop-color="#CC48ED"/>
</linearGradient>
<linearGradient id="paint30_linear_142_132" x1="88.6921" y1="61.2202" x2="87.9106" y2="61.2202" gradientUnits="userSpaceOnUse">
<stop offset="0.144764" stop-color="#A8FFBB"/>
<stop offset="0.480469" stop-color="#6B81F0"/>
<stop offset="1" stop-color="#CC48ED"/>
</linearGradient>
<linearGradient id="paint31_linear_142_132" x1="89.1791" y1="55.7365" x2="88.0071" y2="55.7365" gradientUnits="userSpaceOnUse">
<stop offset="0.144764" stop-color="#A8FFBB"/>
<stop offset="0.480469" stop-color="#6B81F0"/>
<stop offset="1" stop-color="#CC48ED"/>
</linearGradient>
<linearGradient id="paint32_linear_142_132" x1="98.699" y1="55.5506" x2="91.5006" y2="55.5506" gradientUnits="userSpaceOnUse">
<stop offset="0.144764" stop-color="#A8FFBB"/>
<stop offset="0.480469" stop-color="#6B81F0"/>
<stop offset="1" stop-color="#CC48ED"/>
</linearGradient>
<linearGradient id="paint33_linear_142_132" x1="101.098" y1="55.7366" x2="99.913" y2="55.7366" gradientUnits="userSpaceOnUse">
<stop offset="0.144764" stop-color="#A8FFBB"/>
<stop offset="0.480469" stop-color="#6B81F0"/>
<stop offset="1" stop-color="#CC48ED"/>
</linearGradient>
<linearGradient id="paint34_linear_142_132" x1="101.132" y1="61.2592" x2="100.325" y2="61.2592" gradientUnits="userSpaceOnUse">
<stop offset="0.144764" stop-color="#A8FFBB"/>
<stop offset="0.480469" stop-color="#6B81F0"/>
<stop offset="1" stop-color="#CC48ED"/>
</linearGradient>
<linearGradient id="paint35_linear_142_132" x1="109.615" y1="61.169" x2="104.079" y2="61.169" gradientUnits="userSpaceOnUse">
<stop offset="0.144764" stop-color="#A8FFBB"/>
<stop offset="0.480469" stop-color="#6B81F0"/>
<stop offset="1" stop-color="#CC48ED"/>
</linearGradient>
</defs>
</svg>
