<svg width="90" height="54" viewBox="0 0 90 54" fill="none" xmlns="http://www.w3.org/2000/svg">
<path d="M28.9363 7.15968H1.1586C0.82452 7.15968 0.551579 6.89439 0.542419 6.56031C0.542419 6.39823 0.607403 6.24303 0.723608 6.13065C0.839813 6.01751 0.996532 5.95635 1.15862 5.96093H28.9363C29.0969 5.95635 29.2521 6.01827 29.3652 6.13142C29.4784 6.24457 29.5403 6.39976 29.5357 6.56031C29.5357 6.71933 29.4723 6.87224 29.3599 6.98462C29.2475 7.097 29.0954 7.15969 28.9363 7.15969L28.9363 7.15968Z" fill="url(#paint0_linear_142_133)"/>
<path d="M28.9364 47.0443H1.15864C0.979749 47.0741 0.797024 47.0244 0.65789 46.9067C0.519515 46.7897 0.440002 46.6177 0.440002 46.4365C0.440002 46.2546 0.519511 46.0825 0.65789 45.9656C0.797032 45.8486 0.979741 45.7982 1.15864 45.828H28.9364C29.233 45.8784 29.4501 46.1353 29.4501 46.4365C29.4501 46.737 29.233 46.9939 28.9364 47.0443V47.0443Z" fill="url(#paint1_linear_142_133)"/>
<path d="M17.4636 4.59198H12.6341C12.4552 4.62256 12.2725 4.5721 12.1334 4.45513C11.995 4.33816 11.9155 4.16538 11.9155 3.9842C11.9155 3.80303 11.995 3.63024 12.1334 3.51328C12.2725 3.39631 12.4552 3.34585 12.6341 3.37643H17.4636C17.7602 3.42612 17.9773 3.683 17.9773 3.98422C17.9773 4.28545 17.7602 4.54232 17.4636 4.59201V4.59198Z" fill="url(#paint2_linear_142_133)"/>
<path d="M16.8647 49.7512C16.8647 50.7535 16.052 51.5662 15.049 51.5662C14.0467 51.5662 13.2341 50.7535 13.2341 49.7512C13.2341 48.7489 14.0467 47.9363 15.049 47.9363C16.052 47.9363 16.8647 48.7489 16.8647 49.7512Z" fill="url(#paint3_linear_142_133)"/>
<path d="M16.2462 22.7778H4.25873C4.09742 22.7778 3.94223 22.712 3.82908 22.5966C3.71594 22.4804 3.65477 22.3229 3.65936 22.1616V11.3039C3.65477 11.1419 3.71593 10.9851 3.82908 10.8689C3.94223 10.7527 4.09743 10.6877 4.25873 10.6877H16.332C16.6729 10.6877 16.9489 10.9637 16.9489 11.3039V22.1616C16.9504 22.3405 16.874 22.5117 16.7394 22.6302C16.6041 22.7487 16.4244 22.803 16.2463 22.7778L16.2462 22.7778ZM4.77248 21.5622H15.6468V11.9033H4.77248V21.5622Z" fill="url(#paint4_linear_142_133)"/>
<path d="M25.9224 11.99H18.6618C18.3307 11.99 18.0624 11.7217 18.0624 11.3906C18.0624 11.0596 18.3307 10.7913 18.6618 10.7913H25.9231H25.9224C26.2534 10.7913 26.5218 11.0596 26.5218 11.3906C26.5218 11.5497 26.4591 11.7018 26.3467 11.8142C26.2343 11.9266 26.0814 11.99 25.9224 11.99L25.9224 11.99Z" fill="url(#paint5_linear_142_133)"/>
<path d="M24.707 15.6206H18.6619C18.3309 15.6206 18.0626 15.3523 18.0626 15.0212C18.0626 14.6902 18.3309 14.4219 18.6619 14.4219H24.707C24.8675 14.4173 25.0227 14.4784 25.1359 14.5924C25.2498 14.7055 25.3109 14.8607 25.3063 15.0212C25.3063 15.1803 25.2429 15.3324 25.1305 15.4448C25.0181 15.5572 24.866 15.6206 24.707 15.6206L24.707 15.6206Z" fill="url(#paint6_linear_142_133)"/>
<path d="M25.3059 19.2509H18.6615C18.3649 19.2005 18.147 18.9436 18.147 18.6424C18.147 18.3419 18.3649 18.085 18.6615 18.0346H25.3059C25.4847 18.0048 25.6675 18.0545 25.8066 18.1722C25.945 18.2892 26.0245 18.4612 26.0245 18.6424C26.0245 18.8243 25.945 18.9963 25.8066 19.1133C25.6675 19.2303 25.4848 19.2807 25.3059 19.2509V19.2509Z" fill="url(#paint7_linear_142_133)"/>
<path d="M25.9224 22.95H18.6618C18.3307 22.95 18.0624 22.6816 18.0624 22.3506C18.0624 22.0196 18.3307 21.7512 18.6618 21.7512H25.9231H25.9224C26.2534 21.7512 26.5218 22.0196 26.5218 22.3506C26.5218 22.5096 26.4591 22.6617 26.3467 22.7741C26.2343 22.8865 26.0814 22.95 25.9224 22.95L25.9224 22.95Z" fill="url(#paint8_linear_142_133)"/>
<path d="M4.17457 26.7527C3.84354 26.7527 3.5752 26.4843 3.5752 26.1533V25.8452C3.5752 25.5142 3.84354 25.2458 4.17457 25.2458H4.48343C4.81446 25.2458 5.0828 25.5142 5.0828 25.8452C5.08663 26.0838 4.94366 26.3016 4.72273 26.3926C4.63175 26.6143 4.41387 26.7565 4.17457 26.7527Z" fill="url(#paint9_linear_142_133)"/>
<path d="M4.17459 40.572C4.0148 40.5766 3.85961 40.5147 3.7457 40.4016C3.63255 40.2876 3.57063 40.1325 3.57522 39.9727V39.4069C3.57522 39.0759 3.84356 38.8076 4.17459 38.8076C4.50562 38.8076 4.77397 39.0759 4.77397 39.4069V39.9727C4.77397 40.1317 4.71128 40.2838 4.59889 40.3962C4.48651 40.5086 4.3336 40.5721 4.17458 40.5721L4.17459 40.572ZM4.17459 38.6028C3.84356 38.6028 3.57521 38.3344 3.57521 38.0034V37.4377C3.57063 37.2763 3.63179 37.1189 3.74493 37.0026C3.85808 36.8872 4.01328 36.8215 4.17459 36.8215C4.50867 36.8306 4.77473 37.1043 4.77396 37.4376V38.0034C4.77396 38.1624 4.71127 38.3145 4.59889 38.4269C4.48651 38.5393 4.3336 38.6028 4.17458 38.6028L4.17459 38.6028ZM4.17459 36.6335C4.01328 36.6335 3.85808 36.5677 3.74494 36.4515C3.63179 36.3353 3.57063 36.1786 3.57522 36.0165V35.4684C3.61038 35.1648 3.86879 34.9355 4.17459 34.9378C4.50867 34.947 4.77473 35.2207 4.77397 35.554V36.1021C4.74033 36.4095 4.48345 36.6434 4.17459 36.6503L4.17459 36.6335ZM4.17459 34.6474V34.6466C4.0148 34.6512 3.85961 34.59 3.7457 34.4761C3.63255 34.363 3.57063 34.2078 3.57522 34.0472V33.4823C3.57522 33.1512 3.84356 32.8829 4.17459 32.8829C4.50562 32.8829 4.77397 33.1512 4.77397 33.4823V34.0472C4.77397 34.3783 4.50562 34.6466 4.17459 34.6466L4.17459 34.6474ZM4.17459 32.6781V32.6773C3.84356 32.6773 3.57521 32.409 3.57521 32.078V31.513C3.57063 31.3524 3.63255 31.1972 3.7457 31.0841C3.85961 30.9702 4.01481 30.909 4.17459 30.9136C4.50562 30.9136 4.77396 31.182 4.77396 31.513V32.078C4.77396 32.237 4.71127 32.3899 4.59889 32.5023C4.48651 32.6147 4.3336 32.6773 4.17458 32.6773L4.17459 32.6781ZM4.17459 30.7088V30.7081C4.01328 30.7081 3.85808 30.6431 3.74494 30.5269C3.63179 30.4107 3.57063 30.2539 3.57522 30.0919V29.5437C3.57063 29.3816 3.63179 29.2249 3.74494 29.1087C3.85808 28.9925 4.01328 28.9275 4.17459 28.9275C4.50867 28.9367 4.77473 29.2096 4.77396 29.5437V30.0918C4.77473 30.4259 4.50867 30.6989 4.17459 30.708V30.7088ZM4.17459 28.7227V28.722C4.00792 28.7273 3.84737 28.6608 3.7327 28.54C3.61803 28.4184 3.56069 28.2541 3.57522 28.0882V27.5232C3.57522 27.1922 3.84356 26.9238 4.17459 26.9238C4.50562 26.9238 4.77397 27.1922 4.77397 27.5232V28.0882C4.7839 28.2533 4.72504 28.4146 4.61112 28.5346C4.49798 28.6539 4.33973 28.7219 4.17458 28.7219L4.17459 28.7227Z" fill="url(#paint10_linear_142_133)"/>
<path d="M4.48183 42.2847H4.17297C4.01319 42.2893 3.85799 42.2274 3.74409 42.1142C3.63094 42.0003 3.56901 41.8451 3.5736 41.6853V41.3765C3.5736 41.0454 3.84195 40.7771 4.17298 40.7771C4.41151 40.7779 4.62633 40.9193 4.72113 41.1372C4.93902 41.232 5.08044 41.4468 5.08121 41.6853C5.08121 41.8443 5.01775 41.9965 4.90537 42.1089C4.79299 42.2213 4.64084 42.2847 4.48183 42.2847L4.48183 42.2847Z" fill="url(#paint11_linear_142_133)"/>
<path d="M24.022 42.2847H23.4058C23.2453 42.2893 23.0901 42.2273 22.9762 42.1142C22.863 42.0003 22.8011 41.8451 22.8064 41.6853C22.8064 41.3543 23.0748 41.0859 23.4058 41.0859H24.022C24.3561 41.0852 24.629 41.3512 24.6382 41.6853C24.6382 41.8466 24.5732 42.0018 24.457 42.115C24.3408 42.2281 24.1841 42.2893 24.022 42.2847H24.022ZM21.847 42.2847H21.2308C21.0703 42.2893 20.9151 42.2273 20.8019 42.1142C20.688 42.0003 20.6269 41.8451 20.6315 41.6853C20.6315 41.3543 20.8998 41.0859 21.2308 41.0859H21.847C22.1781 41.0859 22.4464 41.3543 22.4464 41.6853C22.451 41.8397 22.3944 41.9896 22.2881 42.102C22.1819 42.2144 22.0359 42.2801 21.8814 42.2847H21.847ZM19.672 42.2847H19.0559C18.8953 42.2893 18.7401 42.2273 18.627 42.1142C18.5131 42.0003 18.4519 41.8451 18.4565 41.6853C18.4565 41.3543 18.7248 41.0859 19.0559 41.0859H19.6721C20.0031 41.0859 20.2714 41.3543 20.2714 41.6853C20.276 41.8397 20.2194 41.9896 20.1132 42.102C20.0077 42.2144 19.8609 42.2801 19.7065 42.2847H19.672ZM17.4971 42.2847H16.8809C16.7188 42.2893 16.5621 42.2281 16.4459 42.115C16.3297 42.0018 16.2647 41.8466 16.2647 41.6853C16.2739 41.3512 16.5468 41.0852 16.8809 41.0859H17.4978C17.8289 41.0859 18.0972 41.3543 18.0972 41.6853C18.1018 41.8397 18.0444 41.9896 17.9382 42.102C17.8327 42.2144 17.6859 42.2801 17.5315 42.2847H17.4971ZM15.3221 42.2847H14.7059C14.5446 42.2893 14.3871 42.2281 14.2709 42.115C14.1555 42.0018 14.0897 41.8466 14.0897 41.6853C14.0989 41.3512 14.3726 41.0852 14.7059 41.0859H15.3228C15.6539 41.0859 15.9222 41.3543 15.9222 41.6853C15.9222 42.0033 15.6745 42.2664 15.3573 42.2847H15.3221ZM13.1471 42.2847H12.5309H12.5317C12.3696 42.2893 12.2129 42.2281 12.0967 42.115C11.9805 42.0018 11.9147 41.8466 11.9147 41.6853C11.9239 41.3512 12.1976 41.0852 12.5317 41.0859H13.1479C13.4789 41.0859 13.7473 41.3543 13.7473 41.6853C13.748 42.0033 13.4996 42.2664 13.1823 42.2847H13.1471ZM10.9722 42.2847H10.3223C10.1602 42.2893 10.0035 42.2281 9.88731 42.115C9.7711 42.0018 9.70612 41.8466 9.70612 41.6853C9.7153 41.3512 9.98823 41.0852 10.3223 41.0859H10.9385C11.2695 41.0859 11.5379 41.3543 11.5379 41.6853C11.5402 41.9911 11.3116 42.2495 11.0073 42.2847H10.9722ZM8.79718 42.2847H8.1634H8.16493C7.8339 42.2847 7.56556 42.0163 7.56556 41.6853C7.56556 41.3543 7.8339 41.0859 8.16493 41.0859H8.79871H8.79795C9.12898 41.0859 9.39732 41.3543 9.39732 41.6853C9.39809 42.0033 9.15039 42.2664 8.83235 42.2847H8.79718ZM6.62221 42.2847H6.02436C5.69333 42.2847 5.42499 42.0163 5.42499 41.6853C5.42499 41.3543 5.69333 41.0859 6.02436 41.0859H6.65814H6.65738C6.98841 41.0859 7.25675 41.3543 7.25675 41.6853C7.25675 41.8443 7.19406 41.9965 7.08168 42.1089C6.9693 42.2212 6.81639 42.2847 6.65737 42.2847L6.62221 42.2847Z" fill="url(#paint12_linear_142_133)"/>
<path d="M25.9224 42.2845H25.6143C25.2833 42.2845 25.0149 42.0162 25.0149 41.6852C25.0111 41.4459 25.1533 41.228 25.375 41.137C25.466 40.9161 25.6838 40.7731 25.9224 40.7769C26.2534 40.7769 26.5217 41.0453 26.5217 41.3763V41.6852C26.5217 41.8442 26.4591 41.9963 26.3467 42.1087C26.2343 42.2211 26.0814 42.2845 25.9224 42.2845L25.9224 42.2845Z" fill="url(#paint13_linear_142_133)"/>
<path d="M25.9223 40.5722C25.589 40.5722 25.3153 40.3061 25.3061 39.9728V39.4071C25.3558 39.1104 25.6135 38.8933 25.9139 38.8933C26.2152 38.8933 26.472 39.1104 26.5217 39.4071V39.9728C26.5217 40.1318 26.459 40.2839 26.3466 40.3963C26.2343 40.5087 26.0814 40.5722 25.9223 40.5722L25.9223 40.5722ZM25.9223 38.6029C25.589 38.6029 25.3153 38.3368 25.3061 38.0035V37.4378C25.2763 37.2589 25.326 37.0762 25.443 36.9378C25.5607 36.7994 25.7327 36.7191 25.9139 36.7191C26.0951 36.7191 26.2679 36.7994 26.3848 36.9378C26.5018 37.0762 26.5523 37.2589 26.5217 37.4378V38.0035C26.5217 38.1625 26.459 38.3147 26.3466 38.427C26.2342 38.5394 26.0813 38.6029 25.9223 38.6029L25.9223 38.6029ZM25.9223 36.6336C25.5821 36.6336 25.3061 36.3576 25.3061 36.0167V35.4517C25.3558 35.1551 25.6135 34.9379 25.9139 34.9379C26.2152 34.9379 26.472 35.1551 26.5217 35.4517V36.0167C26.5263 36.1803 26.4659 36.3393 26.3535 36.4578C26.2411 36.577 26.0859 36.6458 25.9223 36.6504L25.9223 36.6336ZM25.9223 34.6475V34.6467C25.761 34.6513 25.6035 34.5902 25.4873 34.4778C25.3719 34.3646 25.3061 34.2094 25.3061 34.0474V33.4824C25.3558 33.1858 25.6135 32.9686 25.9139 32.9686C26.2151 32.9686 26.472 33.1858 26.5217 33.4824V34.0474C26.5217 34.3784 26.2534 34.6467 25.9223 34.6467L25.9223 34.6475ZM25.9223 32.6782V32.6775C25.589 32.6775 25.3153 32.4122 25.3061 32.0781V31.5131C25.3558 31.2165 25.6135 30.9994 25.9139 30.9994C26.2152 30.9994 26.472 31.2165 26.5217 31.5131V32.0781C26.5217 32.2371 26.459 32.39 26.3466 32.5024C26.2343 32.6148 26.0814 32.6775 25.9223 32.6775L25.9223 32.6782ZM25.9223 30.7089V30.7082C25.5821 30.7082 25.3061 30.4322 25.3061 30.092V29.527C25.3558 29.2296 25.6135 29.0125 25.9139 29.0125C26.2152 29.0125 26.472 29.2296 26.5217 29.527V30.092C26.5225 30.4261 26.2564 30.699 25.9223 30.7082L25.9223 30.7089ZM25.9223 28.7228V28.7221C25.761 28.7267 25.6035 28.6655 25.4873 28.5523C25.3719 28.44 25.3061 28.2848 25.3061 28.1227V27.5577C25.3558 27.2603 25.6135 27.0432 25.9139 27.0432C26.2151 27.0432 26.472 27.2603 26.5217 27.5577V28.0883C26.5316 28.2534 26.4728 28.4147 26.3589 28.5348C26.2457 28.654 26.0875 28.7221 25.9223 28.7221L25.9223 28.7228Z" fill="url(#paint14_linear_142_133)"/>
<path d="M25.9224 26.7527C25.5072 26.5891 25.1785 26.2604 25.0149 25.8452C25.0149 25.5142 25.2832 25.2458 25.6143 25.2458H25.9224C26.2534 25.2458 26.5217 25.5142 26.5217 25.8452V26.1533C26.5217 26.3123 26.459 26.4645 26.3467 26.5769C26.2343 26.6892 26.0814 26.7527 25.9224 26.7527L25.9224 26.7527Z" fill="url(#paint15_linear_142_133)"/>
<path d="M24.0219 26.375H23.4058C23.0747 26.375 22.8064 26.1067 22.8064 25.7756C22.8064 25.4446 23.0747 25.1763 23.4058 25.1763H24.0219C24.356 25.1763 24.629 25.4416 24.6381 25.7756C24.6381 25.9377 24.5732 26.0929 24.4569 26.2053C24.3407 26.3184 24.184 26.3796 24.0219 26.375H24.0219ZM21.847 26.375H21.2308C21.0702 26.3796 20.915 26.3184 20.8019 26.2045C20.688 26.0914 20.6268 25.9362 20.6314 25.7756C20.6314 25.4446 20.8998 25.1763 21.2308 25.1763H21.847C22.1811 25.1763 22.454 25.4416 22.4639 25.7756C22.4639 26.0998 22.2055 26.3658 21.8814 26.375H21.847ZM19.672 26.375H19.0558C18.8953 26.3796 18.7401 26.3184 18.6269 26.2045C18.513 26.0914 18.4519 25.9362 18.4564 25.7756C18.4564 25.4446 18.7248 25.1763 19.0558 25.1763H19.672C20.003 25.1763 20.2714 25.4446 20.2714 25.7756C20.276 25.9301 20.2194 26.0799 20.1131 26.1923C20.0076 26.3047 19.8608 26.3704 19.7064 26.375H19.672ZM17.497 26.375H16.8808C16.7203 26.3796 16.5651 26.3184 16.452 26.2045C16.3388 26.0914 16.2769 25.9362 16.2815 25.7756C16.2815 25.4446 16.5498 25.1763 16.8808 25.1763H17.4978C17.8288 25.1763 18.0972 25.4446 18.0972 25.7756C18.1018 25.9301 18.0444 26.0799 17.9382 26.1923C17.8327 26.3047 17.6859 26.3704 17.5314 26.375H17.497ZM15.3221 26.375H14.7059C14.5446 26.3796 14.3871 26.3184 14.2709 26.2053C14.1554 26.0929 14.0897 25.9377 14.0897 25.7756C14.0988 25.4416 14.3725 25.1763 14.7059 25.1763H15.3228C15.6538 25.1763 15.9222 25.4446 15.9222 25.7756C15.9222 26.0937 15.6745 26.3567 15.3572 26.375H15.3221ZM13.1471 26.375H12.5309H12.5317C12.3696 26.3796 12.2129 26.3184 12.0966 26.2053C11.9804 26.0929 11.9147 25.9377 11.9147 25.7756C11.9239 25.4416 12.1976 25.1763 12.5316 25.1763H13.1478C13.4789 25.1763 13.7472 25.4446 13.7472 25.7756C13.748 26.0937 13.4995 26.3567 13.1822 26.375H13.1471ZM11.0071 26.375H10.3221C10.1601 26.3796 10.0033 26.3184 9.88713 26.2053C9.77092 26.0929 9.70594 25.9377 9.70594 25.7756C9.71512 25.4416 9.98804 25.1763 10.3221 25.1763H10.9383C11.2693 25.1763 11.5377 25.4446 11.5377 25.7756C11.54 26.0814 11.3114 26.3398 11.0071 26.375H11.0071ZM8.83217 26.375H8.19839C7.86736 26.375 7.59901 26.1067 7.59901 25.7756C7.59901 25.4446 7.86736 25.1763 8.19839 25.1763H8.83217C9.1632 25.1763 9.43155 25.4446 9.43155 25.7756C9.43155 25.9347 9.36886 26.0868 9.25647 26.1992C9.14409 26.3116 8.99118 26.375 8.83216 26.375L8.83217 26.375ZM6.6572 26.375H6.02418C5.69315 26.375 5.4248 26.1067 5.4248 25.7756C5.4248 25.4446 5.69315 25.1763 6.02418 25.1763H6.65796H6.6572C6.98823 25.1763 7.25657 25.4446 7.25657 25.7756C7.25657 25.9347 7.19388 26.0868 7.0815 26.1992C6.96912 26.3116 6.81621 26.375 6.65719 26.375L6.6572 26.375Z" fill="url(#paint16_linear_142_133)"/>
<path d="M26.7972 53.6732H3.28409C2.5127 53.6242 1.79253 53.2733 1.2788 52.6961C0.765813 52.1182 0.501284 51.3621 0.544107 50.5906V3.59963C0.501294 2.82824 0.765813 2.07137 1.2788 1.49414C1.79255 0.916935 2.51272 0.565255 3.28409 0.51709H26.7972C27.5678 0.565253 28.2888 0.916935 28.8017 1.49414C29.3147 2.07134 29.5792 2.8282 29.5372 3.59963V50.5906C29.5838 51.3628 29.3208 52.1219 28.8071 52.7006C28.2925 53.2786 27.5693 53.6287 26.7971 53.6731L26.7972 53.6732ZM3.28409 1.73255C2.34986 1.83194 1.67021 2.66449 1.75965 3.59949V50.5905C1.71149 51.0423 1.84528 51.4949 2.13119 51.8481C2.41711 52.2013 2.83148 52.4268 3.28407 52.4742H26.7972C27.2521 52.4307 27.671 52.2074 27.9608 51.8535C28.2498 51.4995 28.3858 51.0446 28.3384 50.5905V3.59949C28.4279 2.65838 27.7375 1.82278 26.7972 1.73255H3.28409Z" fill="url(#paint17_linear_142_133)"/>
<path d="M88.9952 7.15968H61.2175C60.8834 7.15968 60.6104 6.89439 60.6005 6.56031C60.6005 6.39823 60.6663 6.24303 60.7825 6.13065C60.8987 6.01751 61.0554 5.95635 61.2175 5.96093H88.9952C89.155 5.95635 89.3102 6.01827 89.4241 6.13142C89.5373 6.24457 89.5992 6.39976 89.5946 6.56031C89.5946 6.71933 89.5311 6.87224 89.4188 6.98462C89.3064 7.097 89.1542 7.15969 88.9952 7.15969L88.9952 7.15968Z" fill="url(#paint18_linear_142_133)"/>
<path d="M88.9952 47.0443H61.2174C61.0386 47.0741 60.8551 47.0244 60.7167 46.9067C60.5783 46.7897 60.498 46.6177 60.498 46.4365C60.498 46.2546 60.5783 46.0825 60.7167 45.9656C60.8551 45.8486 61.0385 45.7982 61.2174 45.828H88.9952C89.2918 45.8784 89.5089 46.1353 89.5089 46.4365C89.5089 46.737 89.2918 46.9939 88.9952 47.0443V47.0443Z" fill="url(#paint19_linear_142_133)"/>
<path d="M77.5205 4.59198H72.691C72.5121 4.62256 72.3286 4.5721 72.1903 4.45513C72.0519 4.33816 71.9716 4.16538 71.9716 3.9842C71.9716 3.80303 72.0519 3.63024 72.1903 3.51328C72.3286 3.39631 72.5121 3.34585 72.691 3.37643H77.5205C77.8171 3.42612 78.0342 3.683 78.0342 3.98422C78.0342 4.28545 77.8171 4.54232 77.5205 4.59201V4.59198Z" fill="url(#paint20_linear_142_133)"/>
<path d="M76.9216 49.7512C76.9216 50.7535 76.1089 51.5662 75.1059 51.5662C74.1036 51.5662 73.291 50.7535 73.291 49.7512C73.291 48.7489 74.1036 47.9363 75.1059 47.9363C76.1089 47.9363 76.9216 48.7489 76.9216 49.7512Z" fill="url(#paint21_linear_142_133)"/>
<path d="M86.8541 53.6732H63.4095C62.6388 53.6242 61.9179 53.2733 61.405 52.6961C60.892 52.1182 60.6274 51.3621 60.6695 50.5906V3.59963C60.6275 2.82824 60.892 2.07137 61.405 1.49414C61.9179 0.916935 62.6389 0.565255 63.4095 0.51709H86.8541C87.6247 0.565253 88.3456 0.916935 88.8586 1.49414C89.3716 2.07134 89.6361 2.8282 89.594 3.59963V50.5906C89.6407 51.3628 89.3777 52.1219 88.8639 52.7006C88.3494 53.2786 87.6262 53.6287 86.8539 53.6731L86.8541 53.6732ZM63.4095 1.73255C62.4752 1.83194 61.7956 2.66449 61.885 3.59949V50.5905C61.8376 51.0423 61.9714 51.4949 62.2573 51.8481C62.5425 52.2013 62.9576 52.4268 63.4094 52.4742H86.8541C87.3089 52.4307 87.7279 52.2074 88.0176 51.8535C88.3066 51.4995 88.4427 51.0446 88.3953 50.5905V3.59949C88.4848 2.65838 87.7944 1.82278 86.8541 1.73255H63.4095Z" fill="url(#paint22_linear_142_133)"/>
<path d="M33.6804 40.3823C32.6346 40.3823 31.6912 39.7523 31.2914 38.786C30.8907 37.8197 31.1125 36.7073 31.8517 35.9681C32.591 35.2289 33.7034 35.0071 34.6696 35.4077C35.636 35.8076 36.2659 36.751 36.2659 37.7968C36.2567 39.2211 35.1046 40.3732 33.6803 40.3824L33.6804 40.3823ZM33.6804 36.2379C33.0497 36.2379 32.4817 36.6178 32.2401 37.2004C31.9993 37.7822 32.1323 38.4526 32.578 38.8984C33.0237 39.3441 33.6942 39.4779 34.2768 39.2363C34.8586 38.9955 35.2385 38.4267 35.2385 37.7967C35.2431 37.3816 35.0803 36.9825 34.7875 36.6897C34.4939 36.3961 34.0948 36.2333 33.6805 36.2379L33.6804 36.2379Z" fill="url(#paint23_linear_142_133)"/>
<path d="M54.4027 19.6795C54.304 19.6795 54.2085 19.6497 54.1282 19.5939C53.9723 19.5075 53.8736 19.3439 53.8713 19.1658V15.0213C53.8744 14.8386 53.9715 14.6704 54.1282 14.5756C54.2826 14.4907 54.4707 14.4907 54.6251 14.5756L58.7696 16.6474V16.6482C58.947 16.7338 59.0601 16.9135 59.0601 17.1107C59.0563 17.3064 58.9439 17.4846 58.7696 17.5725L54.6251 19.6443V19.6451C54.5541 19.6719 54.4784 19.6841 54.4027 19.6795H54.4027ZM54.9164 15.8607V18.3263L57.3828 17.0932L54.9164 15.8607Z" fill="url(#paint24_linear_142_133)"/>
<path d="M40.325 39.6465C38.6255 39.5738 36.9689 39.0922 35.4955 38.242C35.377 38.174 35.2914 38.0616 35.2555 37.9301C35.2203 37.7986 35.2387 37.658 35.3075 37.5402C35.4558 37.2918 35.7753 37.2084 36.0261 37.3514C36.0261 37.3514 39.8449 39.5945 42.5849 38.0532C44.571 36.9233 45.5985 34.0455 45.5985 29.4907C45.5985 23.7195 46.8829 19.7807 49.4173 17.7944L49.418 17.7952C50.8721 16.6614 52.7452 16.2119 54.5555 16.562C54.8346 16.6331 55.0035 16.9168 54.9324 17.1958C54.8613 17.4749 54.5777 17.6431 54.2987 17.5719C52.8094 17.2975 51.2743 17.6782 50.0863 18.617C47.8432 20.3295 46.6613 24.1483 46.6613 29.4913C46.6613 34.4407 45.4626 37.6089 43.1163 38.9445C42.2639 39.4208 41.3014 39.6624 40.3251 39.6463L40.325 39.6465Z" fill="url(#paint25_linear_142_133)"/>
<path d="M85.9792 27.968H64.2314C64.0923 27.968 63.9593 27.9114 63.8622 27.8121C63.7651 27.7119 63.7131 27.5766 63.7177 27.4374V10.963C63.7131 10.8254 63.7658 10.6916 63.8629 10.5945C63.96 10.4967 64.0938 10.4447 64.2314 10.4493H85.9792C86.2628 10.4493 86.493 10.6794 86.493 10.963V27.523C86.4517 27.776 86.2353 27.9633 85.9792 27.9679V27.968ZM64.7442 26.9237H85.4488V11.3912H64.7442V26.9237Z" fill="url(#paint26_linear_142_133)"/>
<path d="M76.6652 42.4549H76.1339C75.8502 42.4549 75.6201 42.2248 75.6201 41.9412C75.6201 41.6568 75.8502 41.4274 76.1339 41.4274C76.1056 41.2722 76.1476 41.1132 76.2485 40.9916C76.3495 40.8708 76.4985 40.8013 76.656 40.8013C76.8135 40.8013 76.9634 40.8708 77.0643 40.9916C77.1644 41.1132 77.2065 41.2722 77.1789 41.4274V41.9412C77.1789 42.0772 77.1247 42.208 77.0283 42.3043C76.932 42.4006 76.8013 42.4549 76.6652 42.4549V42.4549Z" fill="url(#paint27_linear_142_133)"/>
<path d="M74.6611 42.455H73.6848C73.4011 42.455 73.171 42.2249 73.171 41.9412C73.171 41.6568 73.4011 41.4275 73.6848 41.4275H74.6779C74.9615 41.4275 75.1916 41.6568 75.1916 41.9412C75.1916 42.2249 74.9615 42.455 74.6779 42.455H74.6611ZM72.1778 42.455H71.1847C70.9003 42.455 70.671 42.2249 70.671 41.9412C70.671 41.6568 70.9003 41.4275 71.1847 41.4275H72.1778C72.4615 41.4275 72.6916 41.6568 72.6916 41.9412C72.6916 42.2249 72.4615 42.455 72.1778 42.455ZM69.6946 42.455H68.7183C68.4347 42.455 68.2046 42.2249 68.2046 41.9412C68.2046 41.6568 68.4347 41.4275 68.7183 41.4275H69.6946C69.9782 41.4275 70.2084 41.6568 70.2084 41.9412C70.2084 42.2249 69.9782 42.455 69.6946 42.455ZM67.2282 42.455H66.2351C65.9515 42.455 65.7214 42.2249 65.7214 41.9412C65.7214 41.6568 65.9515 41.4275 66.2351 41.4275H67.2282C67.5118 41.4275 67.742 41.6568 67.742 41.9412C67.742 42.2249 67.5118 42.455 67.2282 42.455Z" fill="url(#paint28_linear_142_133)"/>
<path d="M64.7442 42.4548H64.2305C64.0928 42.4594 63.9591 42.4067 63.862 42.3096C63.7649 42.2117 63.7121 42.0787 63.7167 41.9411V41.4273C63.7167 41.1429 63.9468 40.9136 64.2305 40.9136C64.5141 40.9136 64.7442 41.1429 64.7442 41.4273C65.0278 41.4273 65.258 41.6567 65.258 41.9411C65.258 42.2247 65.0278 42.4548 64.7442 42.4548Z" fill="url(#paint29_linear_142_133)"/>
<path d="M64.2314 40.2121C64.0938 40.2174 63.96 40.1647 63.8629 40.0668C63.7658 39.9697 63.7131 39.8359 63.7177 39.6983V38.5508C63.7177 38.2672 63.9478 38.0371 64.2314 38.0371C64.5151 38.0371 64.7452 38.2672 64.7452 38.5508V39.6983C64.7505 39.8359 64.6978 39.9697 64.5999 40.0668C64.5028 40.1647 64.369 40.2174 64.2314 40.2121ZM64.2314 37.3353C64.0938 37.3399 63.96 37.2879 63.8629 37.19C63.7658 37.0929 63.7131 36.9591 63.7177 36.8215V35.674C63.7177 35.3904 63.9478 35.1602 64.2314 35.1602C64.5151 35.1602 64.7452 35.3904 64.7452 35.674V36.8215C64.7505 36.9591 64.6978 37.0929 64.5999 37.19C64.5028 37.2879 64.369 37.3399 64.2314 37.3353ZM64.2314 34.4585C64.0938 34.4631 63.96 34.4103 63.8629 34.3132C63.7658 34.2161 63.7131 34.0823 63.7177 33.9447V32.7972C63.7177 32.5136 63.9478 32.2834 64.2314 32.2834C64.5151 32.2834 64.7452 32.5136 64.7452 32.7972V33.9447C64.7505 34.0823 64.6978 34.2161 64.5999 34.3132C64.5028 34.4103 64.369 34.4631 64.2314 34.4585Z" fill="url(#paint30_linear_142_133)"/>
<path d="M64.2314 31.5125C64.0938 31.5171 63.96 31.4651 63.8629 31.3672C63.7658 31.2701 63.7131 31.1363 63.7177 30.9987V30.485C63.7131 30.3474 63.7658 30.2136 63.8629 30.1165C63.96 30.0186 64.0938 29.9666 64.2314 29.9712H64.7452C64.8828 29.9666 65.0166 30.0186 65.1137 30.1165C65.2115 30.2136 65.2643 30.3474 65.2589 30.485C65.2589 30.7686 65.0288 30.9987 64.7452 30.9987C64.7505 31.1363 64.6978 31.2701 64.5999 31.3672C64.5028 31.4651 64.369 31.5171 64.2314 31.5125Z" fill="url(#paint31_linear_142_133)"/>
<path d="M74.6611 31.0682H73.6848C73.3981 31.0682 73.1634 30.8403 73.1542 30.5544C73.1535 30.4145 73.2101 30.2815 73.3102 30.1844C73.4104 30.0881 73.5457 30.0361 73.6848 30.0407H74.6779C74.9615 30.0407 75.1917 30.27 75.1917 30.5544C75.1825 30.8403 74.9478 31.0682 74.6611 31.0682H74.6611ZM72.1779 31.0682H71.1848C70.9004 31.0682 70.671 30.838 70.671 30.5544C70.6657 30.4168 70.7184 30.283 70.8155 30.1851C70.9134 30.0881 71.0472 30.0353 71.1848 30.0407H72.1779C72.3155 30.0353 72.4493 30.0881 72.5464 30.1851C72.6434 30.283 72.6962 30.4168 72.6916 30.5544C72.6916 30.838 72.4615 31.0682 72.1779 31.0682H72.1779ZM69.6946 31.0682H68.7184C68.4317 31.0682 68.197 30.8403 68.1878 30.5544C68.187 30.4145 68.2436 30.2815 68.3438 30.1844C68.4439 30.0881 68.5792 30.0361 68.7184 30.0407H69.6947C69.8338 30.0361 69.9691 30.0881 70.0693 30.1844C70.1687 30.2815 70.2252 30.4145 70.2252 30.5544C70.2161 30.8403 69.9814 31.0682 69.6947 31.0682H69.6946ZM67.2283 31.0682H66.2352C65.9515 31.0682 65.7214 30.838 65.7214 30.5544C65.7168 30.4168 65.7688 30.283 65.8667 30.1851C65.9638 30.0881 66.0976 30.0353 66.2352 30.0407H67.2283C67.5119 30.0407 67.742 30.27 67.742 30.5544C67.7336 30.8342 67.5081 31.059 67.2283 31.0682Z" fill="url(#paint32_linear_142_133)"/>
<path d="M76.6652 31.5124C76.5261 31.517 76.3908 31.465 76.2906 31.3679C76.1904 31.2716 76.1339 31.1378 76.1339 30.9987C75.8541 30.9895 75.6293 30.7648 75.6201 30.4849C75.6201 30.2013 75.8502 29.9712 76.1339 29.9712H76.6652C76.9488 29.9712 77.1789 30.2013 77.1789 30.4849V30.9987C77.1789 31.2823 76.9488 31.5124 76.6652 31.5124L76.6652 31.5124Z" fill="url(#paint33_linear_142_133)"/>
<path d="M76.6652 40.212C76.3785 40.212 76.143 39.9849 76.1339 39.6982V38.5507C76.1056 38.3963 76.1476 38.2365 76.2486 38.1157C76.3495 37.9949 76.4986 37.9253 76.656 37.9253C76.8135 37.9253 76.9634 37.9949 77.0643 38.1157C77.1644 38.2365 77.2065 38.3963 77.179 38.5507V39.6982C77.1698 39.9781 76.945 40.2036 76.6652 40.212ZM76.6652 37.3352C76.5261 37.3398 76.3908 37.2878 76.2906 37.1907C76.1905 37.0944 76.1339 36.9606 76.1339 36.8214V35.6739C76.1056 35.5195 76.1476 35.3597 76.2486 35.2389C76.3495 35.1181 76.4985 35.0485 76.656 35.0485C76.8135 35.0485 76.9634 35.1181 77.0643 35.2389C77.1644 35.3597 77.2065 35.5195 77.1789 35.6739V36.8214C77.1789 37.1051 76.9488 37.3352 76.6652 37.3352H76.6652ZM76.6652 34.4584C76.5261 34.463 76.3908 34.411 76.2906 34.3139C76.1904 34.2168 76.1339 34.0838 76.1339 33.9446V32.7971C76.1797 32.5448 76.3999 32.3613 76.656 32.3613C76.9129 32.3613 77.1331 32.5448 77.179 32.7971V33.9446C77.179 34.2283 76.9489 34.4584 76.6652 34.4584L76.6652 34.4584Z" fill="url(#paint34_linear_142_133)"/>
<path d="M85.4489 42.4549H84.4214C84.1377 42.4549 83.9076 42.2248 83.9076 41.9411C83.9076 41.6568 84.1377 41.4274 84.4214 41.4274H84.9351V40.3823C84.981 40.13 85.2004 39.9465 85.4573 39.9465C85.7141 39.9465 85.9336 40.13 85.9794 40.3823V41.4274C85.9947 41.5123 85.9947 41.5994 85.9794 41.6843C85.9993 41.7684 85.9993 41.8563 85.9794 41.9411C85.9794 42.0803 85.9229 42.2133 85.8235 42.3104C85.7233 42.4075 85.588 42.4595 85.4489 42.4549L85.4489 42.4549ZM82.8633 42.4549H81.835C81.5514 42.4549 81.3213 42.2248 81.3213 41.9411C81.3213 41.6568 81.5514 41.4274 81.835 41.4274H82.8625C83.1469 41.4274 83.3763 41.6568 83.3763 41.9411C83.3763 42.2248 83.1469 42.4549 82.8625 42.4549H82.8633ZM80.2777 42.4549H79.2494C78.9658 42.4549 78.7357 42.2248 78.7357 41.9411C78.7357 41.6568 78.9658 41.4274 79.2494 41.4274H80.2769C80.5606 41.4274 80.7907 41.6568 80.7907 41.9411C80.7907 42.2248 80.5606 42.4549 80.2769 42.4549H80.2777ZM79.2502 40.8968L79.2494 40.8961C79.1103 40.9007 78.975 40.8487 78.8748 40.7516C78.7747 40.6552 78.7181 40.5215 78.7188 40.3823V39.3548C78.6906 39.2004 78.7326 39.0406 78.8335 38.9198C78.9344 38.799 79.0835 38.7294 79.241 38.7294C79.3985 38.7294 79.5476 38.799 79.6485 38.9198C79.7494 39.0406 79.7915 39.2004 79.7632 39.3548V40.3823C79.7632 40.666 79.533 40.8961 79.2494 40.8961L79.2502 40.8968ZM85.4496 39.3556L85.4489 39.3548C85.1622 39.3456 84.9351 39.1109 84.9351 38.8243V37.7968C84.981 37.5445 85.2004 37.361 85.4573 37.361C85.7142 37.361 85.9336 37.5445 85.9795 37.7968V38.8243C85.9795 39.1171 85.7417 39.3548 85.4489 39.3548L85.4496 39.3556ZM79.2494 38.3617C79.1103 38.3663 78.975 38.3143 78.8748 38.2172C78.7746 38.1209 78.7181 37.9871 78.7188 37.848V36.8205C78.6905 36.6653 78.7326 36.5063 78.8335 36.3855C78.9344 36.2647 79.0835 36.1943 79.241 36.1943C79.3985 36.1943 79.5476 36.2647 79.6485 36.3855C79.7494 36.5063 79.7914 36.6653 79.7631 36.8205V37.848C79.7631 38.1316 79.533 38.3617 79.2494 38.3617L79.2494 38.3617ZM85.4489 36.8205C85.1622 36.8113 84.9351 36.5766 84.9351 36.2899V35.2624C84.981 35.0094 85.2004 34.8259 85.4573 34.8259C85.7141 34.8259 85.9336 35.0094 85.9794 35.2624V36.2899C85.9527 36.5628 85.7233 36.77 85.4489 36.7693L85.4489 36.8205ZM79.2494 35.7762C79.1103 35.7808 78.975 35.7288 78.8748 35.6317C78.7746 35.5346 78.7181 35.4016 78.7188 35.2624V34.2173C78.7647 33.965 78.9841 33.7816 79.241 33.7816C79.4971 33.7816 79.7173 33.965 79.7632 34.2173V35.2624C79.7364 35.5254 79.5139 35.7257 79.2494 35.7242V35.7762ZM85.4489 34.2181V34.2173C85.1652 34.2173 84.9351 33.9872 84.9351 33.7036V32.6761C84.9068 32.5217 84.9489 32.3619 85.0498 32.2411C85.1507 32.1203 85.2998 32.0507 85.4573 32.0507C85.6148 32.0507 85.7638 32.1203 85.8647 32.2411C85.9656 32.3619 86.0077 32.5216 85.9794 32.6761V33.7036C85.9527 33.9742 85.7203 34.1768 85.4489 34.1661V34.2181ZM79.2494 33.2242C78.9627 33.2242 78.728 32.9972 78.7188 32.7105V31.5117C78.7647 31.2594 78.9841 31.076 79.241 31.076C79.4971 31.076 79.7173 31.2594 79.7632 31.5117V32.5561C79.806 32.7158 79.7716 32.8863 79.6714 33.0171C79.5705 33.1478 79.4146 33.2242 79.2494 33.2242H79.2494ZM85.4489 31.5117C85.1652 31.5117 84.9351 31.2816 84.9351 30.998C84.6553 30.9888 84.4298 30.7641 84.4214 30.4842C84.4214 30.2006 84.6515 29.9705 84.9351 29.9705H85.4489C85.588 29.9659 85.7233 30.0179 85.8235 30.115C85.9229 30.2113 85.9794 30.3451 85.9794 30.4842V30.998C85.9794 31.1371 85.9229 31.2709 85.8235 31.3672C85.7233 31.4643 85.588 31.5163 85.4489 31.5117V31.5117ZM83.3939 30.998H82.3488C82.0652 30.998 81.835 30.7679 81.835 30.4842C81.8304 30.3466 81.8832 30.2129 81.9803 30.1158C82.0781 30.0179 82.2112 29.9659 82.3488 29.9705H83.3939C83.6775 29.9705 83.9076 30.2006 83.9076 30.4843C83.9221 30.631 83.8747 30.7763 83.7769 30.8871C83.6798 30.9972 83.5407 31.0622 83.3939 31.0668L83.3939 30.998ZM80.7907 30.998H79.7632C79.4795 30.998 79.2494 30.7679 79.2494 30.4842C79.2448 30.3466 79.2968 30.2129 79.3947 30.1158C79.4918 30.0179 79.6255 29.9659 79.7632 29.9705H80.7907C80.9298 29.9659 81.0651 30.0179 81.1653 30.115C81.2654 30.2113 81.322 30.3451 81.3212 30.4842C81.3358 30.6341 81.2868 30.7824 81.1852 30.8932C81.0842 31.0041 80.9405 31.0676 80.7907 31.0668L80.7907 30.998Z" fill="url(#paint35_linear_142_133)"/>
<defs>
<linearGradient id="paint0_linear_142_133" x1="28.0278" y1="6.556" x2="5.99025" y2="6.55603" gradientUnits="userSpaceOnUse">
<stop offset="0.144764" stop-color="#A8FFBB"/>
<stop offset="0.480469" stop-color="#6B81F0"/>
<stop offset="1" stop-color="#CC48ED"/>
</linearGradient>
<linearGradient id="paint1_linear_142_133" x1="27.9411" y1="46.4319" x2="5.89095" y2="46.4319" gradientUnits="userSpaceOnUse">
<stop offset="0.144764" stop-color="#A8FFBB"/>
<stop offset="0.480469" stop-color="#6B81F0"/>
<stop offset="1" stop-color="#CC48ED"/>
</linearGradient>
<linearGradient id="paint2_linear_142_133" x1="17.662" y1="3.97989" x2="13.0545" y2="3.9799" gradientUnits="userSpaceOnUse">
<stop offset="0.144764" stop-color="#A8FFBB"/>
<stop offset="0.480469" stop-color="#6B81F0"/>
<stop offset="1" stop-color="#CC48ED"/>
</linearGradient>
<linearGradient id="paint3_linear_142_133" x1="16.6759" y1="49.7385" x2="13.9163" y2="49.7385" gradientUnits="userSpaceOnUse">
<stop offset="0.144764" stop-color="#A8FFBB"/>
<stop offset="0.480469" stop-color="#6B81F0"/>
<stop offset="1" stop-color="#CC48ED"/>
</linearGradient>
<linearGradient id="paint4_linear_142_133" x1="16.2576" y1="16.6935" x2="6.15625" y2="16.6935" gradientUnits="userSpaceOnUse">
<stop offset="0.144764" stop-color="#A8FFBB"/>
<stop offset="0.480469" stop-color="#6B81F0"/>
<stop offset="1" stop-color="#CC48ED"/>
</linearGradient>
<linearGradient id="paint5_linear_142_133" x1="26.0817" y1="11.3864" x2="19.6519" y2="11.3865" gradientUnits="userSpaceOnUse">
<stop offset="0.144764" stop-color="#A8FFBB"/>
<stop offset="0.480469" stop-color="#6B81F0"/>
<stop offset="1" stop-color="#CC48ED"/>
</linearGradient>
<linearGradient id="paint6_linear_142_133" x1="24.9298" y1="15.0169" x2="19.4237" y2="15.0169" gradientUnits="userSpaceOnUse">
<stop offset="0.144764" stop-color="#A8FFBB"/>
<stop offset="0.480469" stop-color="#6B81F0"/>
<stop offset="1" stop-color="#CC48ED"/>
</linearGradient>
<linearGradient id="paint7_linear_142_133" x1="25.6147" y1="18.6384" x2="19.6272" y2="18.6384" gradientUnits="userSpaceOnUse">
<stop offset="0.144764" stop-color="#A8FFBB"/>
<stop offset="0.480469" stop-color="#6B81F0"/>
<stop offset="1" stop-color="#CC48ED"/>
</linearGradient>
<linearGradient id="paint8_linear_142_133" x1="26.0817" y1="22.3464" x2="19.6519" y2="22.3464" gradientUnits="userSpaceOnUse">
<stop offset="0.144764" stop-color="#A8FFBB"/>
<stop offset="0.480469" stop-color="#6B81F0"/>
<stop offset="1" stop-color="#CC48ED"/>
</linearGradient>
<linearGradient id="paint9_linear_142_133" x1="5.00445" y1="25.994" x2="3.85849" y2="25.994" gradientUnits="userSpaceOnUse">
<stop offset="0.144764" stop-color="#A8FFBB"/>
<stop offset="0.480469" stop-color="#6B81F0"/>
<stop offset="1" stop-color="#CC48ED"/>
</linearGradient>
<linearGradient id="paint10_linear_142_133" x1="4.71252" y1="33.7003" x2="3.79886" y2="33.7003" gradientUnits="userSpaceOnUse">
<stop offset="0.144764" stop-color="#A8FFBB"/>
<stop offset="0.480469" stop-color="#6B81F0"/>
<stop offset="1" stop-color="#CC48ED"/>
</linearGradient>
<linearGradient id="paint11_linear_142_133" x1="5.00277" y1="41.5257" x2="3.85669" y2="41.5257" gradientUnits="userSpaceOnUse">
<stop offset="0.144764" stop-color="#A8FFBB"/>
<stop offset="0.480469" stop-color="#6B81F0"/>
<stop offset="1" stop-color="#CC48ED"/>
</linearGradient>
<linearGradient id="paint12_linear_142_133" x1="23.6388" y1="41.6812" x2="9.03511" y2="41.6813" gradientUnits="userSpaceOnUse">
<stop offset="0.144764" stop-color="#A8FFBB"/>
<stop offset="0.480469" stop-color="#6B81F0"/>
<stop offset="1" stop-color="#CC48ED"/>
</linearGradient>
<linearGradient id="paint13_linear_142_133" x1="26.4434" y1="41.5254" x2="25.298" y2="41.5254" gradientUnits="userSpaceOnUse">
<stop offset="0.144764" stop-color="#A8FFBB"/>
<stop offset="0.480469" stop-color="#6B81F0"/>
<stop offset="1" stop-color="#CC48ED"/>
</linearGradient>
<linearGradient id="paint14_linear_142_133" x1="26.4663" y1="33.7604" x2="25.5293" y2="33.7604" gradientUnits="userSpaceOnUse">
<stop offset="0.144764" stop-color="#A8FFBB"/>
<stop offset="0.480469" stop-color="#6B81F0"/>
<stop offset="1" stop-color="#CC48ED"/>
</linearGradient>
<linearGradient id="paint15_linear_142_133" x1="26.4434" y1="25.994" x2="25.298" y2="25.994" gradientUnits="userSpaceOnUse">
<stop offset="0.144764" stop-color="#A8FFBB"/>
<stop offset="0.480469" stop-color="#6B81F0"/>
<stop offset="1" stop-color="#CC48ED"/>
</linearGradient>
<linearGradient id="paint16_linear_142_133" x1="23.6387" y1="25.7716" x2="9.03495" y2="25.7716" gradientUnits="userSpaceOnUse">
<stop offset="0.144764" stop-color="#A8FFBB"/>
<stop offset="0.480469" stop-color="#6B81F0"/>
<stop offset="1" stop-color="#CC48ED"/>
</linearGradient>
<linearGradient id="paint17_linear_142_133" x1="28.0338" y1="26.9093" x2="5.98919" y2="26.9093" gradientUnits="userSpaceOnUse">
<stop offset="0.144764" stop-color="#A8FFBB"/>
<stop offset="0.480469" stop-color="#6B81F0"/>
<stop offset="1" stop-color="#CC48ED"/>
</linearGradient>
<linearGradient id="paint18_linear_142_133" x1="88.0866" y1="6.556" x2="66.0485" y2="6.55603" gradientUnits="userSpaceOnUse">
<stop offset="0.144764" stop-color="#A8FFBB"/>
<stop offset="0.480469" stop-color="#6B81F0"/>
<stop offset="1" stop-color="#CC48ED"/>
</linearGradient>
<linearGradient id="paint19_linear_142_133" x1="87.9999" y1="46.4319" x2="65.9491" y2="46.4319" gradientUnits="userSpaceOnUse">
<stop offset="0.144764" stop-color="#A8FFBB"/>
<stop offset="0.480469" stop-color="#6B81F0"/>
<stop offset="1" stop-color="#CC48ED"/>
</linearGradient>
<linearGradient id="paint20_linear_142_133" x1="77.7189" y1="3.97989" x2="73.1108" y2="3.9799" gradientUnits="userSpaceOnUse">
<stop offset="0.144764" stop-color="#A8FFBB"/>
<stop offset="0.480469" stop-color="#6B81F0"/>
<stop offset="1" stop-color="#CC48ED"/>
</linearGradient>
<linearGradient id="paint21_linear_142_133" x1="76.7327" y1="49.7385" x2="73.9731" y2="49.7385" gradientUnits="userSpaceOnUse">
<stop offset="0.144764" stop-color="#A8FFBB"/>
<stop offset="0.480469" stop-color="#6B81F0"/>
<stop offset="1" stop-color="#CC48ED"/>
</linearGradient>
<linearGradient id="paint22_linear_142_133" x1="88.0943" y1="26.9093" x2="66.1018" y2="26.9093" gradientUnits="userSpaceOnUse">
<stop offset="0.144764" stop-color="#A8FFBB"/>
<stop offset="0.480469" stop-color="#6B81F0"/>
<stop offset="1" stop-color="#CC48ED"/>
</linearGradient>
<linearGradient id="paint23_linear_142_133" x1="35.9969" y1="37.7785" x2="32.066" y2="37.7785" gradientUnits="userSpaceOnUse">
<stop offset="0.144764" stop-color="#A8FFBB"/>
<stop offset="0.480469" stop-color="#6B81F0"/>
<stop offset="1" stop-color="#CC48ED"/>
</linearGradient>
<linearGradient id="paint24_linear_142_133" x1="58.7902" y1="17.0781" x2="54.8463" y2="17.0781" gradientUnits="userSpaceOnUse">
<stop offset="0.144764" stop-color="#A8FFBB"/>
<stop offset="0.480469" stop-color="#6B81F0"/>
<stop offset="1" stop-color="#CC48ED"/>
</linearGradient>
<linearGradient id="paint25_linear_142_133" x1="53.9234" y1="27.9653" x2="38.9416" y2="27.9653" gradientUnits="userSpaceOnUse">
<stop offset="0.144764" stop-color="#A8FFBB"/>
<stop offset="0.480469" stop-color="#6B81F0"/>
<stop offset="1" stop-color="#CC48ED"/>
</linearGradient>
<linearGradient id="paint26_linear_142_133" x1="85.3082" y1="19.1472" x2="67.9969" y2="19.1472" gradientUnits="userSpaceOnUse">
<stop offset="0.144764" stop-color="#A8FFBB"/>
<stop offset="0.480469" stop-color="#6B81F0"/>
<stop offset="1" stop-color="#CC48ED"/>
</linearGradient>
<linearGradient id="paint27_linear_142_133" x1="77.1057" y1="41.6223" x2="75.9146" y2="41.6223" gradientUnits="userSpaceOnUse">
<stop offset="0.144764" stop-color="#A8FFBB"/>
<stop offset="0.480469" stop-color="#6B81F0"/>
<stop offset="1" stop-color="#CC48ED"/>
</linearGradient>
<linearGradient id="paint28_linear_142_133" x1="74.699" y1="41.9376" x2="67.5008" y2="41.9377" gradientUnits="userSpaceOnUse">
<stop offset="0.144764" stop-color="#A8FFBB"/>
<stop offset="0.480469" stop-color="#6B81F0"/>
<stop offset="1" stop-color="#CC48ED"/>
</linearGradient>
<linearGradient id="paint29_linear_142_133" x1="65.1778" y1="41.6789" x2="64.0061" y2="41.6789" gradientUnits="userSpaceOnUse">
<stop offset="0.144764" stop-color="#A8FFBB"/>
<stop offset="0.480469" stop-color="#6B81F0"/>
<stop offset="1" stop-color="#CC48ED"/>
</linearGradient>
<linearGradient id="paint30_linear_142_133" x1="64.6921" y1="36.2202" x2="63.9106" y2="36.2202" gradientUnits="userSpaceOnUse">
<stop offset="0.144764" stop-color="#A8FFBB"/>
<stop offset="0.480469" stop-color="#6B81F0"/>
<stop offset="1" stop-color="#CC48ED"/>
</linearGradient>
<linearGradient id="paint31_linear_142_133" x1="65.1791" y1="30.7365" x2="64.0071" y2="30.7365" gradientUnits="userSpaceOnUse">
<stop offset="0.144764" stop-color="#A8FFBB"/>
<stop offset="0.480469" stop-color="#6B81F0"/>
<stop offset="1" stop-color="#CC48ED"/>
</linearGradient>
<linearGradient id="paint32_linear_142_133" x1="74.699" y1="30.5506" x2="67.5006" y2="30.5506" gradientUnits="userSpaceOnUse">
<stop offset="0.144764" stop-color="#A8FFBB"/>
<stop offset="0.480469" stop-color="#6B81F0"/>
<stop offset="1" stop-color="#CC48ED"/>
</linearGradient>
<linearGradient id="paint33_linear_142_133" x1="77.0979" y1="30.7366" x2="75.913" y2="30.7366" gradientUnits="userSpaceOnUse">
<stop offset="0.144764" stop-color="#A8FFBB"/>
<stop offset="0.480469" stop-color="#6B81F0"/>
<stop offset="1" stop-color="#CC48ED"/>
</linearGradient>
<linearGradient id="paint34_linear_142_133" x1="77.132" y1="36.2592" x2="76.3248" y2="36.2592" gradientUnits="userSpaceOnUse">
<stop offset="0.144764" stop-color="#A8FFBB"/>
<stop offset="0.480469" stop-color="#6B81F0"/>
<stop offset="1" stop-color="#CC48ED"/>
</linearGradient>
<linearGradient id="paint35_linear_142_133" x1="85.6154" y1="36.169" x2="80.0789" y2="36.169" gradientUnits="userSpaceOnUse">
<stop offset="0.144764" stop-color="#A8FFBB"/>
<stop offset="0.480469" stop-color="#6B81F0"/>
<stop offset="1" stop-color="#CC48ED"/>
</linearGradient>
</defs>
</svg>
