<svg width="57" height="57" viewBox="0 0 57 57" fill="none" xmlns="http://www.w3.org/2000/svg">
<path fill-rule="evenodd" clip-rule="evenodd" d="M6.56735 36.3918C10.5368 40.3612 15.8154 42.5478 21.4295 42.5478C26.7118 42.5478 31.6977 40.6121 35.575 37.0773L41.9651 43.4673L40.0333 45.3996C39.6458 45.7866 39.6458 46.4157 40.0333 46.8028L49.6288 56.3988C49.8236 56.5923 50.0771 56.6893 50.3315 56.6893C50.5845 56.6893 50.8389 56.5923 51.0324 56.3988L56.2975 51.1337C56.6845 50.7467 56.6845 50.1171 56.2975 49.73L46.7016 40.1346C46.3145 39.7471 45.6854 39.7471 45.2983 40.1346L43.3691 42.0637L36.9781 35.6728C41.186 31.0399 43.1403 24.6762 42.222 18.4496L40.2576 18.7388C41.1464 24.7656 39.1895 30.6881 34.8886 34.9891C31.2935 38.583 26.5138 40.5633 21.4292 40.5633C16.3453 40.5633 11.5644 38.5843 7.97101 34.9891C4.37719 31.3944 2.39688 26.6143 2.39688 21.5309C2.39688 16.4475 4.37628 11.667 7.97101 8.0727C11.5661 4.47887 16.3458 2.49857 21.4292 2.49857C26.5136 2.49857 31.2932 4.47752 34.8886 8.0727C35.526 8.7106 36.1207 9.39527 36.6568 10.1076L38.2438 8.91382C37.6517 8.12734 36.9954 7.37174 36.2917 6.66819C32.3223 2.69833 27.0432 0.511719 21.4296 0.511719C15.8158 0.511719 10.537 2.69833 6.56741 6.66819C2.59754 10.6376 0.410934 15.9163 0.410934 21.5303C0.410934 27.1441 2.59754 32.4229 6.56741 36.3925L6.56735 36.3918ZM50.3311 54.292L42.1383 46.1011L45.9988 42.2406L54.1911 50.432L50.3311 54.292Z" fill="url(#paint0_linear_141_113)"/>
<path d="M47.1993 12.1897L46.1422 6.61389L36.596 20.6319C36.447 20.8492 36.2186 20.9995 35.9608 21.0489C35.7011 21.0987 35.4344 21.0427 35.2162 20.8937L26.0024 14.6187L16.2909 28.8748L14.6505 27.7568L24.9192 12.6802C25.0669 12.4633 25.2961 12.313 25.5544 12.2632C25.8137 12.2138 26.0804 12.2698 26.299 12.4183L35.5124 18.6938L44.5009 5.49512L38.9237 6.55359L38.5543 4.60286L47.4598 2.9126L49.1501 11.8186L47.1993 12.1897Z" fill="url(#paint1_linear_141_113)"/>
<defs>
<linearGradient id="paint0_linear_141_113" x1="53.6656" y1="28.4041" x2="10.9665" y2="28.4041" gradientUnits="userSpaceOnUse">
<stop offset="0.144764" stop-color="#A8FFBB"/>
<stop offset="0.480469" stop-color="#6B81F0"/>
<stop offset="1" stop-color="#CC48ED"/>
</linearGradient>
<linearGradient id="paint1_linear_141_113" x1="47.3555" y1="15.8029" x2="21.1329" y2="15.8029" gradientUnits="userSpaceOnUse">
<stop offset="0.144764" stop-color="#A8FFBB"/>
<stop offset="0.480469" stop-color="#6B81F0"/>
<stop offset="1" stop-color="#CC48ED"/>
</linearGradient>
</defs>
</svg>
