<svg width="91" height="90" viewBox="0 0 91 90" fill="none" xmlns="http://www.w3.org/2000/svg">
<path d="M46.3118 67.1772C46.3118 67.8758 45.7453 68.4413 45.0477 68.4413C44.3501 68.4413 43.7836 67.8753 43.7836 67.1772C43.7836 66.4796 44.3501 65.9131 45.0477 65.9131C45.7458 65.9126 46.3118 66.4796 46.3118 67.1772ZM52.8479 4.52302C44.4501 2.43926 35.7427 3.75109 28.3293 8.21739C20.9174 12.6827 15.6882 19.7677 13.604 28.1652C9.30344 45.5044 19.909 63.1084 37.247 67.4091C37.3113 67.4252 37.3751 67.4322 37.4379 67.4322C37.792 67.4322 38.1149 67.1926 38.2038 66.833C38.3088 66.4092 38.0511 65.9808 37.6272 65.8763C21.1354 61.7851 11.0464 45.04 15.1362 28.5469C17.1185 20.5578 22.0926 13.8177 29.1428 9.571C36.1947 5.32313 44.4775 4.07508 52.4657 6.05791C68.9575 10.1476 79.0452 26.8929 74.9554 43.3861C72.2669 54.2227 63.8982 62.7785 53.1137 65.7138C52.6938 65.8278 52.4447 66.2617 52.5592 66.6831C52.6732 67.1035 53.1066 67.3521 53.5285 67.2381C64.8654 64.1513 73.6628 55.1579 76.4875 43.7661C80.7891 26.4295 70.183 8.82419 52.8445 4.52219L52.8479 4.52302ZM48.5764 27.284V29.8148H41.5181V27.2831C34.6355 28.8611 29.6834 34.8433 29.4373 41.9467H32.517V49.0041H25.4596V41.9467H28.2475C28.4605 35.3463 32.4493 29.641 38.2943 27.0967L27.8407 27.0972V27.7205H25.4034V25.2842H27.8407V25.9074H41.5182V22.7569H48.5761V25.9074H62.4747V25.2842H64.912V27.7205H62.4747V27.0972H51.7867C57.693 29.6857 61.7268 35.5442 61.8524 42.1838H64.8733V49.2421H57.8159V42.1838H60.6635C60.5173 35.0446 55.5097 28.8822 48.5764 27.284ZM59.0052 43.3735L59.0053 48.0522H63.6847V43.3728L59.0052 43.3724L59.0052 43.3735ZM26.6489 43.1359V47.8153H31.3277V43.1359H26.6489ZM47.3875 23.9453H42.7081V28.6242H47.3875V23.9453Z" fill="url(#paint0_linear_142_129)"/>
<defs>
<linearGradient id="paint0_linear_142_129" x1="74.074" y1="35.7722" x2="24.8226" y2="35.7722" gradientUnits="userSpaceOnUse">
<stop offset="0.144764" stop-color="#A8FFBB"/>
<stop offset="0.480469" stop-color="#6B81F0"/>
<stop offset="1" stop-color="#CC48ED"/>
</linearGradient>
</defs>
</svg>
