<svg width="54" height="62" viewBox="0 0 54 62" fill="none" xmlns="http://www.w3.org/2000/svg">
<path d="M27.024 7.22505C27.2958 7.22505 27.5566 7.11706 27.7488 6.92487C27.941 6.73268 28.049 6.47186 28.049 6.20005V1.07505C28.049 0.509015 27.59 0.0500488 27.024 0.0500488C26.458 0.0500488 25.999 0.509015 25.999 1.07505V6.20005C25.999 6.47186 26.107 6.73269 26.2992 6.92487C26.4914 7.11706 26.7522 7.22505 27.024 7.22505Z" fill="url(#paint0_linear_142_117)"/>
<path d="M11.8036 12.9298C11.9949 13.1275 12.2571 13.24 12.5321 13.2423C12.8071 13.2451 13.0716 13.1366 13.2656 12.9422C13.4601 12.7482 13.5686 12.4837 13.5658 12.2087C13.5635 11.9336 13.451 11.6714 13.2533 11.4802L9.62876 7.856C9.43795 7.65786 9.17529 7.5453 8.90027 7.543C8.62526 7.54072 8.36123 7.64871 8.16676 7.84318C7.97228 8.03766 7.8643 8.30169 7.86658 8.5767C7.86887 8.85171 7.98144 9.11436 8.17958 9.30518L11.8036 12.9298Z" fill="url(#paint1_linear_142_117)"/>
<path d="M1.39899 27.725H6.52399C7.09003 27.725 7.54899 27.2661 7.54899 26.7C7.54899 26.134 7.09003 25.675 6.52399 25.675H1.39899C0.832959 25.675 0.373993 26.134 0.373993 26.7C0.373993 27.2661 0.832959 27.725 1.39899 27.725Z" fill="url(#paint2_linear_142_117)"/>
<path d="M8.90431 45.8434C9.17612 45.8434 9.43695 45.7354 9.62914 45.5432L13.2537 41.9187V41.9192C13.6417 41.5169 13.6362 40.8772 13.2408 40.4818C12.8455 40.0864 12.2062 40.081 11.804 40.4695L8.1798 44.094C7.88649 44.3868 7.79908 44.828 7.95741 45.211C8.1162 45.594 8.48959 45.8433 8.90416 45.8433L8.90431 45.8434Z" fill="url(#paint3_linear_142_117)"/>
<path d="M45.1436 45.8437C45.5582 45.8437 45.9316 45.5943 46.0904 45.2113C46.2487 44.8283 46.1613 44.3871 45.868 44.0943L42.2435 40.4698H42.244C42.0527 40.2721 41.7905 40.1595 41.5155 40.1568C41.2404 40.1545 40.976 40.2629 40.7819 40.457C40.5875 40.6514 40.479 40.9159 40.4818 41.1909C40.4841 41.4659 40.5966 41.7281 40.7943 41.9194L44.4188 45.5439V45.5435C44.611 45.7357 44.8718 45.8436 45.1436 45.8436V45.8437Z" fill="url(#paint4_linear_142_117)"/>
<path d="M47.524 27.725H52.649C53.215 27.725 53.674 27.2661 53.674 26.7C53.674 26.134 53.215 25.675 52.649 25.675H47.524C46.958 25.675 46.499 26.134 46.499 26.7C46.499 27.2661 46.958 27.725 47.524 27.725Z" fill="url(#paint5_linear_142_117)"/>
<path d="M41.5193 13.2296C41.7911 13.2296 42.0519 13.1216 42.2441 12.9295L45.8686 9.30494H45.8681C46.0663 9.11413 46.1788 8.85147 46.1811 8.57645C46.1834 8.30144 46.0754 8.03741 45.8809 7.84294C45.6865 7.64846 45.4224 7.54048 45.1474 7.54276C44.8724 7.54505 44.6098 7.65761 44.4189 7.85575L40.7944 11.4803V11.4798C40.5016 11.7731 40.4137 12.2138 40.5725 12.5968C40.7313 12.9798 41.1047 13.2296 41.5193 13.2296Z" fill="url(#paint6_linear_142_117)"/>
<path d="M20.0282 42.6899L19.4388 46.2651C19.3899 46.5621 19.4741 46.8655 19.669 47.0947C19.8639 47.324 20.1495 47.4562 20.4506 47.4562H20.6217L20.8615 49.783H20.4515C19.8854 49.783 19.4265 50.242 19.4265 50.808V55.1949C19.4265 55.4667 19.5345 55.7275 19.7267 55.9197C19.9188 56.1119 20.1797 56.2199 20.4515 56.2199H21.5245L21.6197 57.158H21.6202C21.6563 58.4374 22.2645 59.6335 23.2775 60.4164C24.3419 61.2602 25.6652 61.7114 27.0237 61.6935C29.9797 61.6935 32.3885 59.6641 32.4255 57.1578L32.5207 56.2198H33.5938C33.8656 56.2198 34.1264 56.1118 34.3186 55.9196C34.5108 55.7274 34.6188 55.4666 34.6188 55.1948V50.8079C34.6188 50.5361 34.5108 50.2753 34.3186 50.0831C34.1264 49.8909 33.8656 49.7829 33.5938 49.7829H33.1838L33.4235 47.4561H33.5951C33.8958 47.4561 34.1818 47.3238 34.3762 47.0946C34.5712 46.8653 34.6554 46.562 34.6069 46.265L34.0193 42.6898C38.9503 40.5313 42.6092 36.2172 43.933 30.9998C45.2573 25.7819 44.0987 20.2455 40.7935 15.9973C37.4883 11.7485 32.4067 9.26343 27.0233 9.26343C21.6399 9.26343 16.5587 11.7486 13.2532 15.9973C9.948 20.246 8.78946 25.7823 10.1136 30.9998C11.4375 36.2172 15.0963 40.5313 20.0273 42.6898L20.0282 42.6899ZM32.5683 51.833V54.1699H21.4782V51.833H32.5683ZM30.3788 56.9969V57.0994C30.3788 58.5015 28.8752 59.6413 27.027 59.6413H27.0275C26.1434 59.6546 25.2809 59.3677 24.5807 58.8277C24.0325 58.4186 23.6999 57.783 23.6756 57.0994V56.9969L23.5946 56.2199H30.4681L30.3788 56.9969ZM31.1233 49.783H22.9233L22.6845 47.4562H31.3581L31.1233 49.783ZM23.9483 30.8H21.8983C21.3547 30.8 20.8331 30.584 20.4487 30.1997C20.0643 29.8153 19.8483 29.2936 19.8483 28.75C19.8483 28.2064 20.0643 27.6848 20.4487 27.3004C20.8331 26.916 21.3547 26.7 21.8983 26.7C22.4419 26.7 22.9636 26.916 23.348 27.3004C23.7323 27.6848 23.9483 28.2064 23.9483 28.75V30.8ZM27.0233 11.325C31.8605 11.3227 36.4171 13.5951 39.3268 17.4594C42.2357 21.3242 43.1587 26.3321 41.8185 30.9801C40.4782 35.6278 37.0307 39.375 32.5107 41.0973C32.054 41.2712 31.784 41.743 31.865 42.2248L32.3866 45.4105H30.0987V42.0751C30.0987 41.5091 29.6398 41.0501 29.0737 41.0501C28.5077 41.0501 28.0487 41.5091 28.0487 42.0751V45.4064H25.9987V32.8499H28.0487V33.8749C28.0487 34.4409 28.5077 34.8999 29.0737 34.8999C29.6398 34.8999 30.0987 34.4409 30.0987 33.8749V32.8499H32.1487C33.236 32.8499 34.2789 32.4179 35.048 31.6492C35.8168 30.88 36.2487 29.8371 36.2487 28.7499C36.2487 27.6627 35.8168 26.6198 35.048 25.8506C34.2788 25.0819 33.2359 24.6499 32.1487 24.6499C31.0615 24.6499 30.0186 25.0819 29.2494 25.8506C28.4807 26.6198 28.0487 27.6627 28.0487 28.7499V30.7999H25.9987V28.7499C25.9987 27.6627 25.5668 26.6198 24.798 25.8506C24.0288 25.0819 22.9859 24.6499 21.8987 24.6499C20.8115 24.6499 19.7686 25.0819 18.9994 25.8506C18.2307 26.6198 17.7987 27.6627 17.7987 28.7499C17.7987 29.8371 18.2307 30.88 18.9994 31.6492C19.7687 32.4179 20.8115 32.8499 21.8987 32.8499H23.9487V45.4064H21.6608L22.1825 42.2207C22.2635 41.7389 21.9935 41.2671 21.5368 41.0932C17.0204 39.3686 13.5771 35.6219 12.2386 30.976C10.9001 26.3306 11.8226 21.3259 14.7293 17.4624C17.6358 13.5994 22.1894 11.3265 27.0234 11.3251L27.0233 11.325ZM30.0983 30.8V28.75C30.0983 28.2064 30.3143 27.6848 30.6987 27.3004C31.0831 26.916 31.6047 26.7 32.1483 26.7C32.6919 26.7 33.2136 26.916 33.598 27.3004C33.9823 27.6848 34.1983 28.2064 34.1983 28.75C34.1983 29.2936 33.9823 29.8153 33.598 30.1997C33.2136 30.584 32.6919 30.8 32.1483 30.8H30.0983Z" fill="url(#paint7_linear_142_117)"/>
<path d="M27.024 15.425C30.0193 15.4287 32.8907 16.6197 35.0085 18.7379C37.1266 20.8556 38.3182 23.7275 38.3214 26.7224C38.3214 27.2884 38.7803 27.7474 39.3464 27.7474C39.9124 27.7474 40.3714 27.2884 40.3714 26.7224C40.3672 23.1838 38.9597 19.7913 36.4576 17.2887C33.9556 14.7867 30.5625 13.3791 27.024 13.375C26.458 13.375 25.999 13.834 25.999 14.4C25.999 14.966 26.458 15.425 27.024 15.425Z" fill="url(#paint8_linear_142_117)"/>
<path d="M23.949 15.4251C23.949 15.9912 23.49 16.4501 22.924 16.4501C22.358 16.4501 21.899 15.9912 21.899 15.4251C21.899 14.8591 22.358 14.4001 22.924 14.4001C23.49 14.4001 23.949 14.8591 23.949 15.4251Z" fill="url(#paint9_linear_142_117)"/>
<path d="M30.099 37.975C30.099 38.541 29.64 39 29.074 39C28.5079 39 28.049 38.541 28.049 37.975C28.049 37.4089 28.5079 36.95 29.074 36.95C29.64 36.95 30.099 37.4089 30.099 37.975Z" fill="url(#paint10_linear_142_117)"/>
<defs>
<linearGradient id="paint0_linear_142_117" x1="27.9424" y1="3.61246" x2="26.3842" y2="3.61246" gradientUnits="userSpaceOnUse">
<stop offset="0.144764" stop-color="#A8FFBB"/>
<stop offset="0.480469" stop-color="#6B81F0"/>
<stop offset="1" stop-color="#CC48ED"/>
</linearGradient>
<linearGradient id="paint1_linear_142_117" x1="13.2694" y1="10.3728" x2="8.93744" y2="10.3728" gradientUnits="userSpaceOnUse">
<stop offset="0.144764" stop-color="#A8FFBB"/>
<stop offset="0.480469" stop-color="#6B81F0"/>
<stop offset="1" stop-color="#CC48ED"/>
</linearGradient>
<linearGradient id="paint2_linear_142_117" x1="7.17577" y1="26.6929" x2="1.72216" y2="26.6929" gradientUnits="userSpaceOnUse">
<stop offset="0.144764" stop-color="#A8FFBB"/>
<stop offset="0.480469" stop-color="#6B81F0"/>
<stop offset="1" stop-color="#CC48ED"/>
</linearGradient>
<linearGradient id="paint3_linear_142_117" x1="13.2466" y1="42.9927" x2="8.94331" y2="42.9927" gradientUnits="userSpaceOnUse">
<stop offset="0.144764" stop-color="#A8FFBB"/>
<stop offset="0.480469" stop-color="#6B81F0"/>
<stop offset="1" stop-color="#CC48ED"/>
</linearGradient>
<linearGradient id="paint4_linear_142_117" x1="45.8725" y1="42.9803" x2="41.5502" y2="42.9803" gradientUnits="userSpaceOnUse">
<stop offset="0.144764" stop-color="#A8FFBB"/>
<stop offset="0.480469" stop-color="#6B81F0"/>
<stop offset="1" stop-color="#CC48ED"/>
</linearGradient>
<linearGradient id="paint5_linear_142_117" x1="53.3008" y1="26.6929" x2="47.8472" y2="26.6929" gradientUnits="userSpaceOnUse">
<stop offset="0.144764" stop-color="#A8FFBB"/>
<stop offset="0.480469" stop-color="#6B81F0"/>
<stop offset="1" stop-color="#CC48ED"/>
</linearGradient>
<linearGradient id="paint6_linear_142_117" x1="45.8854" y1="10.3663" x2="41.5629" y2="10.3663" gradientUnits="userSpaceOnUse">
<stop offset="0.144764" stop-color="#A8FFBB"/>
<stop offset="0.480469" stop-color="#6B81F0"/>
<stop offset="1" stop-color="#CC48ED"/>
</linearGradient>
<linearGradient id="paint7_linear_142_117" x1="42.6544" y1="35.2954" x2="16.1335" y2="35.2954" gradientUnits="userSpaceOnUse">
<stop offset="0.144764" stop-color="#A8FFBB"/>
<stop offset="0.480469" stop-color="#6B81F0"/>
<stop offset="1" stop-color="#CC48ED"/>
</linearGradient>
<linearGradient id="paint8_linear_142_117" x1="39.6238" y1="20.5109" x2="28.6995" y2="20.5109" gradientUnits="userSpaceOnUse">
<stop offset="0.144764" stop-color="#A8FFBB"/>
<stop offset="0.480469" stop-color="#6B81F0"/>
<stop offset="1" stop-color="#CC48ED"/>
</linearGradient>
<linearGradient id="paint9_linear_142_117" x1="23.8424" y1="15.418" x2="22.2842" y2="15.418" gradientUnits="userSpaceOnUse">
<stop offset="0.144764" stop-color="#A8FFBB"/>
<stop offset="0.480469" stop-color="#6B81F0"/>
<stop offset="1" stop-color="#CC48ED"/>
</linearGradient>
<linearGradient id="paint10_linear_142_117" x1="29.9923" y1="37.9678" x2="28.4342" y2="37.9678" gradientUnits="userSpaceOnUse">
<stop offset="0.144764" stop-color="#A8FFBB"/>
<stop offset="0.480469" stop-color="#6B81F0"/>
<stop offset="1" stop-color="#CC48ED"/>
</linearGradient>
</defs>
</svg>
